<svg width="50" height="50" viewBox="0 0 50 50" fill="none" xmlns="http://www.w3.org/2000/svg">
<g clip-path="url(#clip0_452_21)">
<path d="M10.3852 0C7.53223 0 5.42109 3.13358 5.51562 6.53186C5.60645 9.79657 5.48848 14.0252 4.64023 17.4735C3.78945 20.9319 2.35039 23.1225 0 23.4039V26.5794C2.35039 26.8608 3.78945 29.0515 4.64023 32.5101C5.48848 35.9583 5.60645 40.1865 5.51562 43.4515C5.42109 46.8493 7.53223 49.9833 10.3855 49.9833H39.6186C42.4717 49.9833 44.5822 46.8498 44.4877 43.4515C44.3971 40.1868 44.5148 35.9583 45.3631 32.5101C46.2145 29.0517 47.6496 26.8605 50 26.5794V23.4039C47.6496 23.1225 46.2145 20.9319 45.3633 17.4735C44.5148 14.0257 44.3971 9.79681 44.4877 6.53186C44.5822 3.13407 42.4717 0 39.6186 0H10.3848H10.3852V0ZM33.8984 30.7679C33.8984 35.4473 31.1172 38.285 26.5016 38.285H18.6441C18.4194 38.285 18.2039 38.1729 18.045 37.9735C17.8861 37.774 17.7969 37.5036 17.7969 37.2216V12.7618C17.7968 12.6221 17.8188 12.4838 17.8613 12.3547C17.9039 12.2257 17.9663 12.1084 18.045 12.0096C18.1237 11.9108 18.2172 11.8325 18.32 11.779C18.4228 11.7256 18.533 11.698 18.6443 11.698H26.4566C30.3053 11.698 32.8311 14.3145 32.8311 18.3311C32.8311 21.1505 31.1318 23.6745 28.9672 24.1164V24.2637C31.9143 24.6694 33.8984 27.2304 33.8984 30.7679V30.7679ZM25.6445 15.0694H21.1646V23.0105H24.9381C27.8549 23.0105 29.4635 21.5365 29.4635 18.9017C29.4635 16.4328 28.0803 15.0694 25.6447 15.0694H25.6445ZM21.1646 26.1615V34.9127H25.8096C28.8463 34.9127 30.4553 33.3836 30.4553 30.5096C30.4553 27.635 28.8016 26.161 25.6143 26.161H21.1646V26.1615Z" fill="#7E13F8"/>
</g>
<defs>
<clipPath id="clip0_452_21">
<rect width="50" height="50" fill="white"/>
</clipPath>
</defs>
</svg>
