<svg width="51" height="51" viewBox="0 0 51 51" fill="none" xmlns="http://www.w3.org/2000/svg">
<g clip-path="url(#clip0_95_28)">
<path d="M50.5496 15.0032C50.5492 14.1646 50.3475 13.4237 49.9395 12.7877C49.5387 12.1624 48.9385 11.6382 48.1334 11.2238C41.4879 7.81776 34.8359 4.4221 28.1926 1.01255C26.4016 0.0934572 24.665 0.126964 22.8873 1.05926C20.2422 2.44589 6.99902 9.19016 3.05273 11.2219C1.42754 12.0582 0.636719 13.3381 0.636328 15.0016C0.633789 21.8514 0.636328 28.7011 0.633789 35.5511C0.63418 36.3712 0.827344 37.0978 1.21738 37.7242C1.61836 38.3685 2.22695 38.907 3.05059 39.3308C6.99707 41.3626 20.242 48.1063 22.8865 49.4933C24.665 50.4261 26.4016 50.4594 28.1932 49.54C34.8367 46.1303 41.4891 42.7348 48.1355 39.3287C48.9592 38.9051 49.5678 38.3662 49.9688 37.7224C50.3582 37.0961 50.5518 36.3695 50.5521 35.5492C50.5521 35.5492 50.5521 21.8532 50.5496 15.0032Z" fill="#5C8DBC"/>
<path d="M25.6693 25.2097L1.21738 37.7243C1.61835 38.3686 2.22695 38.9071 3.05058 39.3309C6.99706 41.3627 20.242 48.1064 22.8865 49.4934C24.665 50.4262 26.4016 50.4595 28.1932 49.5401C34.8367 46.1304 41.4891 42.7349 48.1355 39.3288C48.9592 38.9052 49.5678 38.3663 49.9687 37.7226L25.6693 25.2097Z" fill="#1A4674"/>
<path d="M18.4269 28.9167C19.8498 31.1246 22.5246 32.6139 25.593 32.6139C28.6803 32.6139 31.3703 31.1057 32.7859 28.8741L25.6693 25.2097L18.4269 28.9167Z" fill="#1A4674"/>
<path d="M50.5496 15.0033C50.5492 14.1648 50.3475 13.4238 49.9395 12.7878L25.6693 25.2097L49.9688 37.7226C50.3582 37.0962 50.5518 36.3696 50.5522 35.5493C50.5522 35.5493 50.5522 21.8533 50.5496 15.0033Z" fill="#1B598E"/>
<path d="M49.2135 26.104H47.3146V27.7922H45.4154V26.104H43.5168V24.4164H45.4154V22.7285H47.3146V24.4164H49.2135V26.104ZM42.2848 26.104H40.3861V27.7922H38.4873V26.104H36.5885V24.4164H38.4873V22.7285H40.3861V24.4164H42.2848V26.104Z" fill="white"/>
<path d="M32.7859 28.8741C31.3703 31.1057 28.6803 32.6138 25.593 32.6138C22.5246 32.6138 19.8498 31.1246 18.4269 28.9166C17.7122 27.8087 17.3368 26.5535 17.3383 25.2763C17.3383 21.2241 21.0342 17.939 25.593 17.939C28.6416 17.939 31.3023 19.4097 32.7322 21.5951L39.9473 17.902C37.0795 13.5017 31.7254 10.5413 25.593 10.5413C16.4375 10.5413 9.01581 17.1385 9.01581 25.2763C9.01581 27.9461 9.81483 30.4498 11.2113 32.6093C14.0719 37.0329 19.4412 40.0116 25.593 40.0116C31.756 40.0116 37.1338 37.0209 39.9902 32.5843L32.7859 28.8741Z" fill="white"/>
</g>
<defs>
<clipPath id="clip0_95_28">
<rect width="50" height="50" fill="white" transform="translate(0.633789 0.294922)"/>
</clipPath>
</defs>
</svg>
