<svg width="51" height="51" viewBox="0 0 51 51" fill="none" xmlns="http://www.w3.org/2000/svg">
<path d="M9.85566 43.2066L6.34628 3.83008H44.9213L41.4072 43.2004L25.6103 47.5801L9.85566 43.2066Z" fill="#1572B6"/>
<path d="M25.6338 44.2331L38.3994 40.694L41.4025 7.05029H25.6338V44.2331Z" fill="#33A9DC"/>
<path d="M25.6338 21.316H32.0244L32.465 16.3707H25.6338V11.541H37.7432L37.6275 12.8363L36.4416 26.1457H25.6338V21.316Z" fill="white"/>
<path d="M25.6635 33.8583L25.6416 33.8645L20.2635 32.4114L19.9197 28.5598H15.0713L15.7479 36.1426L25.64 38.8895L25.6635 38.8833V33.8583Z" fill="#EBEBEB"/>
<path d="M31.6135 25.9409L31.0322 32.4081L25.6463 33.8612V38.8862L35.5463 36.1425L35.6197 35.3269L36.4588 25.9409H31.6135Z" fill="white"/>
<path d="M25.651 11.541V16.3707H13.9854L13.8885 15.2848L13.6682 12.8363L13.5526 11.541H25.651ZM25.6338 21.316V26.1457H20.3229L20.226 25.0598L20.0072 22.6113L19.8916 21.316H25.6338Z" fill="#EBEBEB"/>
</svg>
