<svg width="30" height="30" viewBox="0 0 30 30" fill="none" xmlns="http://www.w3.org/2000/svg">
<path d="M16.25 24.9225C18.7716 24.6016 21.0764 23.3327 22.696 21.3735C24.3156 19.4143 25.1284 16.9119 24.9692 14.375C24.81 11.838 23.6908 9.45686 21.8391 7.71548C19.9873 5.97409 17.5419 5.00315 15 5C12.455 4.9981 10.0049 5.96667 8.14917 7.70835C6.29341 9.45002 5.17155 11.8337 5.01218 14.3738C4.85281 16.9139 5.66792 19.4191 7.29143 21.3791C8.91494 23.3391 11.2247 24.6063 13.75 24.9225V17.5H11.25V15H13.75V12.9325C13.75 11.2612 13.925 10.655 14.25 10.0437C14.5701 9.43898 15.065 8.94461 15.67 8.625C16.1475 8.36875 16.7412 8.215 17.7787 8.14875C18.19 8.1225 18.7225 8.155 19.3763 8.24875V10.6237H18.75C17.6038 10.6237 17.13 10.6775 16.8475 10.8288C16.6789 10.9154 16.5417 11.0527 16.455 11.2213C16.305 11.5037 16.25 11.7838 16.25 12.9313V15H19.375L18.75 17.5H16.25V24.9225ZM15 27.5C8.09625 27.5 2.5 21.9037 2.5 15C2.5 8.09625 8.09625 2.5 15 2.5C21.9037 2.5 27.5 8.09625 27.5 15C27.5 21.9037 21.9037 27.5 15 27.5Z" fill="white"/>
</svg>
