<svg width="51" height="51" viewBox="0 0 51 51" fill="none" xmlns="http://www.w3.org/2000/svg">
<g clip-path="url(#clip0_95_423)">
<path d="M50.0382 23.0674L28.2078 1.23809C26.9513 -0.0191406 24.9123 -0.0191406 23.6542 1.23809L19.121 5.77129L24.8716 11.5219C26.208 11.0703 27.7404 11.3732 28.8056 12.4385C29.8759 13.5105 30.1767 15.0561 29.7142 16.3967L35.2562 21.9389C36.597 21.477 38.1441 21.7758 39.215 22.8484C40.7117 24.3445 40.7117 26.7693 39.215 28.2664C37.7179 29.7637 35.2931 29.7637 33.7953 28.2664C32.6695 27.1395 32.3914 25.4861 32.9613 24.0992L27.7929 18.9309L27.7923 32.5318C28.167 32.7171 28.5092 32.9618 28.8056 33.2564C30.3023 34.7525 30.3023 37.1775 28.8056 38.6758C27.3085 40.1723 24.8826 40.1723 23.3876 38.6758C21.891 37.1775 21.891 34.7527 23.3876 33.2566C23.7463 32.8978 24.1726 32.6136 24.6417 32.4205V18.6928C24.1719 18.501 23.7454 18.2166 23.3876 17.8566C22.2537 16.7242 21.981 15.0604 22.5621 13.668L16.8933 7.99863L1.92456 22.9664C0.666748 24.2248 0.666748 26.2641 1.92456 27.5215L23.7554 49.3512C25.0123 50.6086 27.0509 50.6086 28.3093 49.3512L50.038 27.6229C51.2955 26.365 51.2955 24.3246 50.038 23.0674" fill="#DE4C36"/>
</g>
<defs>
<clipPath id="clip0_95_423">
<rect width="50" height="50" fill="white" transform="translate(0.981201 0.294922)"/>
</clipPath>
</defs>
</svg>
