<svg width="50" height="51" viewBox="0 0 50 51" fill="none" xmlns="http://www.w3.org/2000/svg">
<path d="M9.22187 42.5182L5.71094 3.1416H44.2891L40.7734 42.5119L24.9766 46.8916L9.22187 42.5182Z" fill="#E44F26"/>
<path d="M25 43.5446L37.7656 40.0056L40.7687 6.36182H25V43.5446Z" fill="#F1662A"/>
<path d="M25 20.9649H18.6094L18.1688 16.0196H25V11.1899H12.8906L13.0063 12.4868L14.1922 25.7946H25V20.9649ZM25 33.5071L24.9781 33.5134L19.6 32.0618L19.2563 28.2103H14.4078L15.0844 35.7915L24.9781 38.5384L25 38.5321V33.5071Z" fill="#EBEBEB"/>
<path d="M24.9828 20.9649V25.7946H30.9297L30.3703 32.0587L24.9828 33.5118V38.5368L34.8844 35.7915L34.9563 34.9759L36.0906 22.2618L36.2094 20.9649H24.9828ZM24.9828 11.1899V16.0196H36.6484L36.7453 14.9353L36.9656 12.4868L37.0813 11.1899H24.9828Z" fill="white"/>
</svg>
