<svg width="51" height="50" viewBox="0 0 51 50" fill="none" xmlns="http://www.w3.org/2000/svg">
<g clip-path="url(#clip0_95_4)">
<path d="M16.4407 38.6522C16.4407 38.6522 13.863 39.7613 18.2753 40.1366C23.6208 40.5877 26.3526 40.5231 32.2435 39.6981C32.2435 39.6981 33.7923 40.4166 35.955 41.039C22.7497 45.2265 6.06846 40.7964 16.4407 38.6522ZM14.8271 33.1877C14.8271 33.1877 11.9358 34.7713 16.3515 35.1091C22.0616 35.545 26.571 35.5807 34.3741 34.469C34.3741 34.469 35.4534 35.2785 37.1505 35.7213C21.1843 39.1756 3.40088 35.9937 14.8271 33.1877Z" fill="#5382A1"/>
<path d="M28.4306 23.9185C31.6845 26.6901 27.5757 29.1844 27.5757 29.1844C27.5757 29.1844 35.8376 26.0287 32.0433 22.077C28.4995 18.392 25.7817 16.5608 40.494 10.2478C40.494 10.2478 17.4007 14.5151 28.4306 23.9183" fill="#E76F00"/>
<path d="M45.8958 42.694C45.8958 42.694 47.8034 43.8569 43.7948 44.7566C36.1726 46.4651 12.0698 46.981 5.37412 44.8247C2.96729 44.0501 7.48096 42.975 8.90068 42.7493C10.3813 42.5117 11.2276 42.556 11.2276 42.556C8.55088 41.1608 -6.07373 45.2955 3.79912 46.4795C30.7235 49.7101 52.8796 45.0248 45.8958 42.694ZM17.6802 27.5261C17.6802 27.5261 5.42022 29.6808 13.3388 30.463C16.6821 30.7942 23.3472 30.7193 29.5556 30.3344C34.6294 30.0179 39.7241 29.3445 39.7241 29.3445C39.7241 29.3445 37.9351 29.9114 36.6407 30.5653C24.1907 32.988 0.139551 31.861 7.06357 29.3828C12.9192 27.2886 17.6804 27.5261 17.6804 27.5261M39.6735 36.6218C52.3298 31.7559 46.478 27.0799 42.3937 27.7099C41.3925 27.864 40.9462 27.9975 40.9462 27.9975C40.9462 27.9975 41.3179 27.5669 42.0276 27.3805C50.1077 25.2786 56.322 33.5795 39.4192 36.867C39.4192 36.8672 39.6151 36.7377 39.6735 36.6218Z" fill="#5382A1"/>
<path d="M32.0433 0.0536113C32.0433 0.0536113 39.0524 5.24147 25.3954 13.2185C14.444 19.6176 22.8981 23.2662 25.3909 27.4348C18.9983 23.1675 14.3069 19.4108 17.4544 15.9146C22.0737 10.7821 34.8712 8.29378 32.0433 0.0534668" fill="#E76F00"/>
<path d="M18.9239 49.8071C31.0722 50.3826 49.7271 49.4879 50.1688 45.2349C50.1688 45.2349 49.3196 46.8473 40.129 48.1276C29.7603 49.5713 16.972 49.4028 9.38701 48.4775C9.38721 48.4775 10.9397 49.4284 18.9241 49.8071" fill="#5382A1"/>
</g>
<defs>
<clipPath id="clip0_95_4">
<rect width="50" height="50" fill="white" transform="translate(0.316895)"/>
</clipPath>
</defs>
</svg>
