<svg width="50" height="50" viewBox="0 0 50 50" fill="none" xmlns="http://www.w3.org/2000/svg">
<g clip-path="url(#clip0_533_10)">
<path fill-rule="evenodd" clip-rule="evenodd" d="M47.824 3.72656L49.9158 3.77742C49.9158 3.77742 46.0268 27.0378 45.7092 28.9335C45.606 29.5473 45.4494 30.2093 45.3699 31.03C45.169 33.0929 44.9628 37.6184 44.9628 37.6184L43.0488 37.6606C43.0488 37.6606 43.3467 32.9434 43.3344 30.4309C43.3236 28.236 43.0697 26.0438 42.9273 23.8425C42.7834 21.6141 42.588 17.2537 42.588 17.2537H44.5558L44.8271 22.0455L47.824 3.72656" fill="#1A1918"/>
<path fill-rule="evenodd" clip-rule="evenodd" d="M43.863 8.63223C44.249 9.65938 44.4859 15.3258 44.4859 15.3258C44.4859 15.3258 42.466 15.4572 41.3668 15.4572H40.4169L39.2634 37.6184H37.4993C37.4993 37.6184 38.5972 13.5348 38.8563 9.16844C38.9403 7.75464 39.4317 7.99731 40.2615 7.99731H41.5866C42.4423 7.99731 43.4424 7.51499 43.863 8.63223M35.6504 19.4253C35.6504 19.4253 35.7054 18.0029 35.4639 16.3555C35.2575 14.9512 35.067 14.6245 34.5241 14.5495C32.9914 14.337 33.0212 19.3503 33.0212 19.3503L35.6504 19.4253ZM37.3127 13.684C37.5373 17.2602 37.1092 25.6633 37.1092 25.6633C37.1092 25.6633 34.8734 25.4986 33.6488 25.6633C33.2681 25.7146 32.8123 25.4805 32.6989 26.2624C32.5395 27.3581 32.7572 29.0447 32.9418 29.7572C33.1542 30.5775 33.568 30.671 33.7167 30.7542C34.7106 31.3115 36.7909 30.8982 36.7909 30.8982L36.4306 37.9413C36.4306 37.9413 33.4908 38.5921 32.0204 37.043C31.7301 36.7378 31.4579 36.121 31.274 35.2465C31.2238 35.0072 31.1803 34.6809 31.1328 34.399C31.0949 34.174 30.9844 33.4348 30.9348 32.8503C30.5989 28.9003 30.9741 21.3331 31.3419 17.2779C31.3846 16.8081 31.4382 16.212 31.4946 15.7055C31.5651 15.074 31.6248 14.3611 31.6812 13.9835C31.719 13.7232 31.766 13.5555 31.8054 13.3098C31.8508 13.0193 31.9036 12.7378 31.9525 12.4865C32.0883 11.7917 32.2423 11.3003 32.4275 10.69C33.0401 8.66499 34.1488 7.093 35.4808 7.69473C35.9822 7.92231 36.7395 8.71283 37.1092 10.9891C37.2082 11.5969 37.2571 12.8038 37.3127 13.6844V13.684ZM29.2216 7.96973L30.9321 7.92533C30.9321 7.92533 29.9788 27.8852 29.493 37.6184H27.5252C26.15 37.6184 24.9253 38.3702 24.4042 34.0245C23.8987 29.8051 24.3812 22.8663 24.6077 18.1521C24.7679 14.8158 25.1052 7.99688 25.1052 7.99688L26.8774 7.92533C26.8774 7.92533 26.3767 18.5417 26.1683 23.8426C26.0937 25.7413 25.9397 27.5292 26.1005 28.9331C26.2531 30.2693 26.4669 30.365 27.1182 30.4309C27.3245 30.4525 28.0003 30.4309 28.0003 30.4309L29.2216 7.96973M21.2152 22.3447C21.3943 19.5361 21.6556 16.4904 21.6224 13.9594C21.5864 11.2525 21.0722 8.78783 20.7403 8.26973C19.7409 6.7124 18.8053 8.88956 18.4334 10.6654C17.9523 12.9654 17.7895 15.6521 17.6191 19.3508C17.4924 22.0965 17.3885 24.9952 17.6191 27.1365C18.0275 30.9223 19.3012 30.0956 20.6725 30.1318C20.876 27.724 21.0442 25.0197 21.2152 22.3447V22.3447ZM23.59 11.2646C23.7854 17.5352 23.0357 24.4568 22.5193 30.4758C23.0459 30.6857 23.5073 30.4434 23.5405 30.6167C23.5751 30.8413 23.1876 37.8012 23.0525 37.8193C22.6347 37.8671 21.2499 37.918 20.6725 37.918C18.7882 37.918 17.0255 38.4598 16.1266 34.3245C15.7615 32.6443 15.5091 29.7628 15.4479 27.7357C15.3462 24.3516 15.4737 20.6258 15.6516 17.5538C15.8124 14.7801 16.0186 12.1628 16.3301 9.76671C17.1219 3.66671 18.4992 -0.861306 20.8081 0.183953C21.256 0.387401 21.8991 1.25292 22.3009 2.28007C22.3286 2.35206 22.4258 2.69344 22.448 2.75335C22.9909 4.27792 23.4855 7.91628 23.59 11.2646V11.2646ZM15.2532 8.00594C15.1393 10.2969 15.0253 12.8939 14.9052 15.1577H13.0054C13.1525 12.6482 13.2652 10.1533 13.4125 7.97016C14.0204 7.97016 14.5856 8.00594 15.2533 8.00594M12.9375 17.2542H14.7695C14.53 23.1059 14.0557 32.5452 13.6839 39.1158C13.4512 43.2279 13.2958 46.2283 12.6661 48.3995C12.6098 48.5943 12.5772 48.5016 12.5304 48.699C12.4144 49.1874 11.8776 49.7538 11.5806 49.8969C11.0975 50.1279 10.5513 49.9271 9.95752 49.8732C10.1129 47.3667 10.2887 44.3568 10.4271 42.1102C11.8744 42.8835 11.911 36.8456 12.1912 31.0301C12.3533 27.6697 12.8446 18.6016 12.9375 17.2542" fill="#1A1918"/>
<path fill-rule="evenodd" clip-rule="evenodd" d="M8.66288 32.5278L8.62362 32.9765C7.95468 38.7265 6.76923 42.2545 5.07841 42.4101C4.28798 42.4816 3.53485 41.5868 3.04286 40.6131C1.98114 38.5084 1.08808 34.6032 0.60038 30.4312C-0.0992296 24.4506 -0.225401 16.1308 1.22929 9.91699C1.25175 9.91699 1.05282 11.2644 1.07528 11.2644L1.03524 11.8394C-0.0129991 26.3252 3.21659 38.7385 6.35604 37.3187C7.11054 36.9778 8.07265 35.1541 8.66288 32.5278Z" fill="#21609B"/>
<path fill-rule="evenodd" clip-rule="evenodd" d="M6.76307 26.5377C7.55291 26.5619 8.37791 24.9326 8.86648 22.6446C8.43904 27.4334 7.20145 30.5119 5.54188 29.5326C4.15223 28.7119 2.8285 22.5399 2.69217 16.3558C2.59246 11.8546 2.94783 9.16835 3.53348 5.91016C3.32996 7.61404 3.25389 8.92869 3.23494 9.76705C3.01248 19.5033 4.99705 26.4869 6.76307 26.5377" fill="#21609B"/>
<path fill-rule="evenodd" clip-rule="evenodd" d="M8.78709 14.445C8.66434 15.6881 7.9574 18.0356 7.64519 18.3287C6.40896 19.4912 5.61726 16.9037 5.20252 13.9597C5.1409 13.5196 5.02693 12.3188 5.00652 12.0131C4.84568 9.59936 4.91961 5.94849 5.39939 4.05884C5.25486 5.85625 5.23377 7.94289 5.30984 9.29979C5.35594 10.1205 5.49637 11.5524 5.63689 12.4532C5.89256 14.0946 6.05467 14.4933 6.38318 15.3644C6.53113 15.7567 6.68982 16.0713 6.75838 16.158C7.0698 16.5623 7.72732 17.6287 8.78719 14.445" fill="#21609B"/>
</g>
<defs>
<clipPath id="clip0_533_10">
<rect width="50" height="50" fill="white"/>
</clipPath>
</defs>
</svg>
