<svg width="51" height="51" viewBox="0 0 51 51" fill="none" xmlns="http://www.w3.org/2000/svg">
<path d="M3.27759 3.83008H47.0276V47.5801H3.27759V3.83008Z" fill="#F5DE19"/>
<path d="M32.6667 38.0098C33.0394 38.767 33.6186 39.4034 34.3373 39.8458C35.0561 40.2881 35.8852 40.5183 36.7292 40.5098C38.4323 40.5098 39.5213 39.6583 39.5213 38.4786C39.5213 37.0723 38.4026 36.5692 36.5276 35.7489L35.4995 35.3083C32.5307 34.0442 30.562 32.4614 30.562 29.1145C30.562 26.0317 32.9057 23.6833 36.5823 23.6833C37.7724 23.5973 38.9616 23.8637 40.0013 24.4491C41.0411 25.0346 41.8855 25.9132 42.4292 26.9755L39.2151 29.0301C39.0057 28.5035 38.6412 28.0528 38.1699 27.7381C37.6986 27.4233 37.1427 27.2592 36.576 27.2676C36.3288 27.2429 36.0791 27.2699 35.8429 27.347C35.6066 27.4241 35.3891 27.5495 35.204 27.7153C35.0189 27.8811 34.8704 28.0837 34.7679 28.3101C34.6655 28.5364 34.6113 28.7817 34.6088 29.0301C34.6088 30.263 35.3729 30.763 37.137 31.5301L38.1651 31.9708C41.6588 33.4692 43.6338 34.9958 43.6338 38.4286C43.6338 42.1301 40.726 44.1583 36.8213 44.1583C35.2999 44.2552 33.783 43.9098 32.4536 43.1637C31.1241 42.4176 30.039 41.3027 29.3292 39.9536L32.6667 38.0098ZM18.1432 38.3661C18.7885 39.5114 19.376 40.4801 20.7885 40.4801C22.1385 40.4801 22.9917 39.952 22.9917 37.8973V23.9176H27.1026V37.952C27.1026 42.2083 24.6026 44.1458 20.9635 44.1458C19.6772 44.2161 18.3997 43.8955 17.299 43.2262C16.1982 42.5569 15.3258 41.5702 14.7963 40.3958L18.1432 38.3661Z" fill="black"/>
</svg>
