<svg width="51" height="50" viewBox="0 0 51 50" fill="none" xmlns="http://www.w3.org/2000/svg">
<path d="M21.2544 16.875L21.3586 19.2708L19.6919 22.3958L17.0877 27.5L16.5669 31.7708L18.4419 37.8125L22.7127 40.2083H29.1711L35.2127 35.625L37.9211 28.4375L31.6711 20.8333L29.9002 16.5625L21.2544 16.875Z" fill="#ECEFF1"/>
<path d="M36.0461 22.8124C34.3794 20.4166 33.0252 18.9583 32.2961 15.9374C31.5669 12.9166 32.5044 13.7499 31.8794 11.1458C31.5669 9.7916 31.0461 8.8541 30.5252 8.12493C29.9002 7.39576 29.1711 6.9791 28.7544 6.87493C27.8169 6.3541 25.6294 5.52076 22.9211 6.9791C20.1086 8.43743 20.4211 11.5624 20.9419 17.9166C20.9419 18.3333 20.8377 18.8541 20.6294 19.2708C20.2127 20.2083 19.4836 21.0416 18.8586 21.7708C18.1294 22.8124 17.4002 23.8541 16.8794 24.9999C15.6294 27.3958 14.4836 30.4166 14.7961 31.5624C15.3169 31.4583 21.8794 41.4583 21.8794 41.6666C22.2961 41.5624 24.0669 41.5624 25.6294 41.5624C27.8169 41.4583 29.0669 41.3541 30.8377 41.7708C30.8377 41.4583 30.7336 41.1458 30.7336 40.8333C30.7336 40.2083 30.8377 39.6874 30.9419 38.9583C31.0461 38.4374 31.1502 37.9166 31.2544 37.2916C30.2127 38.2291 28.3377 39.2708 26.5669 39.5833C25.0044 39.8958 22.4002 39.3749 21.1502 37.8124C21.2544 37.8124 21.4627 37.8124 21.5669 37.7083C21.8794 37.6041 22.1919 37.4999 22.2961 37.2916C22.6086 36.7708 22.4002 36.2499 22.1919 35.9374C21.9836 35.6249 20.4211 34.4791 19.6919 33.8541C18.9627 33.2291 18.5461 32.9166 18.1294 32.4999L17.2961 31.6666C17.0877 31.4583 16.9836 31.2499 16.8794 31.1458C16.6711 30.6249 16.5669 29.9999 16.6711 29.1666C16.7752 28.0208 17.1919 27.0833 17.7127 26.0416C17.9211 25.6249 18.4419 24.7916 18.4419 24.7916C18.4419 24.7916 16.6711 29.1666 17.6086 30.5208C17.6086 30.5208 17.7127 29.1666 18.1294 27.8124C18.4419 26.8749 18.9627 25.5208 19.5877 24.7916C20.2127 24.0624 21.7752 21.3541 21.8794 19.6874C21.8794 18.9583 21.9836 18.2291 21.9836 17.7083C21.5669 17.2916 28.8586 16.2499 29.2752 17.3958C29.3794 17.8124 30.8377 21.5624 31.6711 23.5416C32.0877 24.4791 32.6086 25.3124 32.9211 26.3541C33.2336 27.4999 33.4419 29.0624 33.4419 30.6249C33.4419 30.9374 33.4419 31.4583 33.3377 31.9791C33.5461 31.9791 37.6086 27.6041 32.8169 23.9583C32.8169 23.9583 35.7336 25.3124 35.8377 28.0208C35.9419 30.2083 35.0044 31.9791 34.7961 32.2916C34.9002 32.2916 36.9836 33.2291 37.0877 33.2291C37.5044 33.2291 38.3377 32.9166 38.3377 32.9166C38.4419 32.6041 38.7544 31.7708 38.7544 31.4583C39.4836 29.0624 37.7127 25.2083 36.0461 22.8124Z" fill="#263238"/>
<path d="M22.8169 15.9377C23.5648 15.9377 24.1711 15.0049 24.1711 13.8543C24.1711 12.7037 23.5648 11.771 22.8169 11.771C22.069 11.771 21.4627 12.7037 21.4627 13.8543C21.4627 15.0049 22.069 15.9377 22.8169 15.9377Z" fill="#ECEFF1"/>
<path d="M27.5044 16.1459C28.4824 16.1459 29.2752 15.0733 29.2752 13.7501C29.2752 12.4269 28.4824 11.3542 27.5044 11.3542C26.5264 11.3542 25.7336 12.4269 25.7336 13.7501C25.7336 15.0733 26.5264 16.1459 27.5044 16.1459Z" fill="#ECEFF1"/>
<path d="M23.5741 13.9964C23.4875 13.3115 23.0935 12.7972 22.6939 12.8477C22.2944 12.8982 22.0407 13.4944 22.1273 14.1793C22.2139 14.8642 22.6079 15.3785 23.0074 15.328C23.407 15.2775 23.6607 14.6813 23.5741 13.9964Z" fill="#212121"/>
<path d="M27.4002 15.5208C27.9755 15.5208 28.4419 14.9146 28.4419 14.1667C28.4419 13.4188 27.9755 12.8125 27.4002 12.8125C26.8249 12.8125 26.3586 13.4188 26.3586 14.1667C26.3586 14.9146 26.8249 15.5208 27.4002 15.5208Z" fill="#212121"/>
<path d="M41.2544 37.0833C40.8377 36.8749 40.1086 36.5624 39.4836 35.6249C39.1711 35.1041 39.2752 33.6458 38.7544 33.0208C38.4419 32.6041 38.0252 32.8124 37.9211 32.8124C36.9836 33.0208 34.7961 34.4791 33.3377 32.8124C33.1294 32.6041 32.8169 32.2916 32.2961 32.2916C31.7752 32.2916 31.5669 32.4999 31.3586 32.9166C31.1502 33.3333 31.1502 33.6458 31.1502 34.6874C31.1502 35.5208 31.1502 36.4583 31.0461 37.1874C30.8377 38.9583 30.5252 39.9999 30.5252 41.0416C30.5252 42.1874 30.8377 42.9166 31.2544 43.2291C31.5669 43.5416 32.0877 43.7499 33.2336 43.7499C34.3794 43.7499 35.1086 43.3333 35.8377 42.6041C36.3586 42.0833 36.7752 41.8749 38.2336 40.8333C39.3794 40.1041 41.1502 39.1666 41.4627 38.8541C41.6711 38.6458 41.9836 38.5416 41.9836 37.9166C41.9836 37.3958 41.5669 37.1874 41.2544 37.0833ZM20.3169 37.3958C19.2752 35.7291 19.1711 35.4166 18.4419 34.3749C17.8169 33.3333 16.4627 31.3541 15.6294 31.3541C15.0044 31.3541 14.6919 31.6666 14.2752 32.0833C13.8586 32.4999 13.4419 33.4374 12.7127 33.9583C12.0877 34.4791 10.3169 34.3749 9.90023 34.9999C9.48356 35.6249 10.3169 36.5624 10.3169 38.1249C10.3169 38.7499 9.79606 39.1666 9.69189 39.5833C9.58773 40.1041 9.48356 40.4166 9.69189 40.8333C10.1086 41.4583 10.6294 41.6666 14.1711 42.3958C16.0461 42.8124 17.8169 43.8541 18.9627 43.9583C20.1086 44.0624 22.0877 43.9583 22.0877 41.1458C22.1919 39.4791 21.2544 39.0624 20.3169 37.3958ZM22.2961 18.5416C21.6711 18.1249 21.1502 17.7083 21.1502 17.0833C21.1502 16.4583 21.5669 16.2499 22.1919 15.7291C22.2961 15.6249 23.4419 14.5833 24.5877 14.5833C25.7336 14.5833 27.0877 15.3124 27.6086 15.5208C28.5461 15.7291 29.4836 15.9374 29.3794 16.6666C29.2752 17.7083 29.1711 17.9166 28.1294 18.4374C27.4002 18.6458 26.0461 19.7916 25.1086 19.7916C24.6919 19.7916 24.0669 19.7916 23.6502 19.6874C23.3377 19.5833 22.8169 19.0624 22.2961 18.5416Z" fill="#FFC107"/>
<path d="M22.0877 17.7083C22.2961 17.9167 22.6086 18.125 22.9211 18.2292C23.1294 18.3333 23.4419 18.4375 23.4419 18.4375H24.3794C24.9002 18.4375 25.6294 18.2292 26.3586 17.8125C27.0877 17.5 27.1919 17.2917 27.7127 17.0833C28.2336 16.7708 28.7544 16.4583 28.5461 16.3542C28.3377 16.25 28.1294 16.3542 27.4002 16.7708C26.7752 17.1875 26.2544 17.3958 25.6294 17.7083C25.3169 17.8125 24.9002 18.0208 24.5877 18.0208H23.6502C23.3377 18.0208 23.1294 17.9167 22.8169 17.8125C22.6086 17.7083 22.5044 17.6042 22.4002 17.6042C22.1919 17.5 21.7752 17.0833 21.5669 16.9792C21.5669 16.9792 21.3586 16.9792 21.4627 17.0833L22.0877 17.7083ZM25.2127 15.4167C25.3169 15.625 25.5252 15.625 25.6294 15.7292C25.7336 15.8333 25.8377 15.8333 25.8377 15.8333C25.9419 15.7292 25.8377 15.5208 25.7336 15.5208C25.7336 15.3125 25.2127 15.3125 25.2127 15.4167ZM23.5461 15.625C23.5461 15.7292 23.7544 15.8333 23.7544 15.7292C23.8586 15.625 23.9627 15.5208 24.0669 15.5208C24.2752 15.4167 24.1711 15.3125 23.8586 15.3125C23.6502 15.4167 23.6502 15.5208 23.5461 15.625Z" fill="#634703"/>
<path d="M33.6502 34.0624V34.3749C33.8586 34.7916 34.3794 34.8958 34.7961 34.8958C35.4211 34.8958 36.0461 34.4791 36.3586 34.0624C36.3586 33.9583 36.4627 33.8541 36.5669 33.7499C36.7752 33.4374 36.8794 33.2291 36.9836 33.1249C36.9836 33.1249 36.8794 33.0208 36.8794 32.9166C36.7752 32.7083 36.4627 32.4999 36.0461 32.3958C35.7336 32.2916 35.2127 32.1874 35.0044 32.1874C34.0669 32.0833 33.5461 32.3958 33.2336 32.7083C33.2336 32.7083 33.3377 32.7083 33.3377 32.8124C33.5461 33.0208 33.6502 33.2291 33.6502 33.5416C33.7544 33.7499 33.6502 33.8541 33.6502 34.0624Z" fill="#455A64"/>
</svg>
