<svg width="167" height="54" viewBox="0 0 167 54" fill="none" xmlns="http://www.w3.org/2000/svg">
<path d="M61.04 13.58C61.04 12.5533 61.48 11.7 62.36 11.02C63.2533 10.34 64.3533 10 65.66 10C66.6733 10 67.46 10.2067 68.02 10.62C68.5933 11.0333 68.88 11.6267 68.88 12.4C68.88 13 68.7267 13.4867 68.42 13.86C68.1267 14.2333 67.7333 14.42 67.24 14.42C67.0533 14.42 66.88 14.3867 66.72 14.32C66.5733 14.2533 66.44 14.1467 66.32 14C66.5867 13.84 66.8 13.6 66.96 13.28C67.1333 12.96 67.22 12.6267 67.22 12.28C67.22 11.8533 67.0933 11.5267 66.84 11.3C66.5867 11.06 66.22 10.94 65.74 10.94C65.1667 10.94 64.7133 11.1 64.38 11.42C64.06 11.74 63.9 12.1867 63.9 12.76C63.9 13.2267 64.02 13.6733 64.26 14.1C64.5 14.5133 65.02 15.0733 65.82 15.78C66.8733 16.7 67.5667 17.5 67.9 18.18C68.2333 18.8467 68.4 19.5933 68.4 20.42C68.4 21.94 67.8733 23.1533 66.82 24.06C65.7667 24.9667 64.42 25.42 62.78 25.42C61.4733 25.42 60.44 25.12 59.68 24.52C58.92 23.92 58.54 23.0733 58.54 21.98C58.54 21.02 58.8267 20.2333 59.4 19.62C59.9733 19.0067 60.6667 18.7 61.48 18.7C61.9867 18.7 62.4 18.82 62.72 19.06C63.04 19.2867 63.2133 19.6067 63.24 20.02C62.5467 20.02 61.98 20.1867 61.54 20.52C61.1133 20.8533 60.9 21.3133 60.9 21.9C60.9 22.46 61.0733 22.92 61.42 23.28C61.7667 23.64 62.2333 23.82 62.82 23.82C63.5133 23.82 64.0733 23.58 64.5 23.1C64.9267 22.62 65.14 21.9733 65.14 21.16C65.14 20.5333 65 19.9333 64.72 19.36C64.44 18.7867 63.86 18.02 62.98 17.06C62.18 16.2067 61.6533 15.54 61.4 15.06C61.16 14.5667 61.04 14.0733 61.04 13.58ZM75.9063 15.92V16.06L76.1263 15H79.0063L77.5663 21.8C77.5396 21.92 77.5196 22.0333 77.5063 22.14C77.4929 22.2333 77.4863 22.3333 77.4863 22.44C77.4863 22.7333 77.5529 22.9533 77.6863 23.1C77.8196 23.2333 78.0263 23.3 78.3063 23.3C78.6529 23.3 78.9663 23.14 79.2463 22.82C79.5263 22.4867 79.7529 22.02 79.9263 21.42H80.7663C80.3396 22.6467 79.7863 23.5733 79.1063 24.2C78.4263 24.8133 77.6396 25.12 76.7463 25.12C76.1729 25.12 75.7129 24.96 75.3663 24.64C75.0329 24.32 74.8396 23.8667 74.7863 23.28C74.3729 23.8933 73.9129 24.3533 73.4063 24.66C72.9129 24.9667 72.3796 25.12 71.8063 25.12C70.9796 25.12 70.3263 24.84 69.8463 24.28C69.3796 23.72 69.1462 22.9267 69.1462 21.9C69.1462 21.1533 69.2596 20.3733 69.4863 19.56C69.7129 18.7467 70.0263 18.0067 70.4263 17.34C70.9196 16.5533 71.4929 15.9533 72.1463 15.54C72.7996 15.1133 73.5129 14.9 74.2863 14.9C74.8063 14.9 75.2063 14.9933 75.4863 15.18C75.7663 15.3533 75.9063 15.6 75.9063 15.92ZM75.7263 16.9C75.7263 16.7 75.6529 16.5267 75.5063 16.38C75.3596 16.22 75.1596 16.14 74.9063 16.14C74.1729 16.14 73.5196 16.7533 72.9463 17.98C72.3863 19.2067 72.1063 20.42 72.1063 21.62C72.1063 22.14 72.1796 22.5333 72.3263 22.8C72.4729 23.0533 72.7329 23.18 73.1063 23.18C73.4529 23.18 73.7863 23.0133 74.1063 22.68C74.4396 22.3467 74.6596 21.9267 74.7663 21.42L75.7263 16.9ZM84.7936 22.86C84.7936 22.62 84.8203 22.32 84.8736 21.96C84.9403 21.6 85.0669 21.0267 85.2536 20.24C85.4403 19.48 85.5603 18.9333 85.6136 18.6C85.6669 18.2667 85.6936 17.9867 85.6936 17.76C85.6936 17.4267 85.6336 17.1733 85.5136 17C85.3936 16.8267 85.2136 16.74 84.9736 16.74C84.6536 16.74 84.3536 16.9067 84.0736 17.24C83.8069 17.56 83.5869 18.0067 83.4136 18.58L82.0536 25H79.1736L81.2936 15H84.1736L83.9536 16.04C84.2869 15.6667 84.6469 15.3867 85.0336 15.2C85.4203 15.0133 85.8403 14.92 86.2936 14.92C87.0003 14.92 87.5469 15.1133 87.9336 15.5C88.3203 15.8867 88.5136 16.4467 88.5136 17.18C88.5136 17.4867 88.4736 17.8533 88.3936 18.28C88.3269 18.6933 88.1869 19.3333 87.9736 20.2C87.8003 20.88 87.6869 21.36 87.6336 21.64C87.5803 21.92 87.5536 22.1533 87.5536 22.34C87.5536 22.62 87.6203 22.8333 87.7536 22.98C87.8869 23.1133 88.0869 23.18 88.3536 23.18C88.6869 23.18 88.9736 23.0667 89.2136 22.84C89.4536 22.6133 89.7269 22.14 90.0336 21.42H90.8736C90.4469 22.66 89.9269 23.5867 89.3136 24.2C88.7136 24.8133 87.9936 25.12 87.1536 25.12C86.4069 25.12 85.8269 24.92 85.4136 24.52C85.0003 24.1067 84.7936 23.5533 84.7936 22.86ZM92.7703 21.62C92.7703 22.14 92.8436 22.5333 92.9903 22.8C93.137 23.0533 93.397 23.18 93.7703 23.18C94.1036 23.18 94.4303 23.0267 94.7503 22.72C95.0703 22.4 95.2903 22 95.4103 21.52V21.42L96.3903 16.84C96.3503 16.6267 96.257 16.46 96.1103 16.34C95.977 16.2067 95.797 16.14 95.5703 16.14C94.837 16.14 94.1836 16.7533 93.6103 17.98C93.0503 19.2067 92.7703 20.42 92.7703 21.62ZM96.5703 15.92V16L97.5503 11.4L100.51 11L98.2103 21.8C98.1836 21.92 98.1636 22.0333 98.1503 22.14C98.137 22.2333 98.1303 22.3333 98.1303 22.44C98.1303 22.7067 98.1903 22.9 98.3103 23.02C98.4436 23.1267 98.657 23.18 98.9503 23.18C99.297 23.18 99.6103 23.0267 99.8903 22.72C100.17 22.4133 100.397 21.98 100.57 21.42H101.41C100.997 22.6067 100.457 23.5 99.7903 24.1C99.137 24.7 98.337 25 97.3903 25C96.8436 25 96.397 24.8533 96.0503 24.56C95.717 24.2533 95.5103 23.8267 95.4303 23.28C95.0303 23.8933 94.5836 24.3533 94.0903 24.66C93.597 24.9667 93.057 25.12 92.4703 25.12C91.6436 25.12 90.9903 24.84 90.5103 24.28C90.0436 23.72 89.8103 22.9267 89.8103 21.9C89.8103 21.1533 89.9236 20.3733 90.1503 19.56C90.377 18.7467 90.6903 18.0067 91.0903 17.34C91.5836 16.5533 92.157 15.9533 92.8103 15.54C93.4636 15.1133 94.177 14.9 94.9503 14.9C95.4703 14.9 95.8703 14.9933 96.1503 15.18C96.4303 15.3533 96.5703 15.6 96.5703 15.92ZM103.918 23.18C104.265 23.18 104.571 23.0333 104.838 22.74C105.118 22.4333 105.345 21.9933 105.518 21.42L106.878 15H109.758L108.318 21.8C108.291 21.92 108.271 22.0333 108.258 22.14C108.245 22.2333 108.238 22.3333 108.238 22.44C108.238 22.7067 108.298 22.9 108.418 23.02C108.551 23.1267 108.765 23.18 109.058 23.18C109.405 23.18 109.718 23.0267 109.998 22.72C110.278 22.4133 110.505 21.98 110.678 21.42H111.518C111.091 22.6467 110.538 23.5733 109.858 24.2C109.178 24.8133 108.391 25.12 107.498 25.12C106.925 25.12 106.465 24.96 106.118 24.64C105.771 24.3067 105.571 23.8333 105.518 23.22C105.131 23.86 104.691 24.34 104.198 24.66C103.718 24.9667 103.171 25.12 102.558 25.12C101.891 25.12 101.365 24.9133 100.978 24.5C100.605 24.0733 100.418 23.48 100.418 22.72C100.418 22.5467 100.431 22.3533 100.458 22.14C100.485 21.9133 100.525 21.6733 100.578 21.42L101.938 15H104.818L103.378 21.8C103.351 21.9067 103.331 22.0067 103.318 22.1C103.318 22.18 103.318 22.2667 103.318 22.36C103.318 22.6267 103.365 22.8333 103.458 22.98C103.565 23.1133 103.718 23.18 103.918 23.18ZM115.536 22.86C115.536 22.62 115.562 22.32 115.616 21.96C115.682 21.6 115.809 21.0267 115.996 20.24C116.182 19.48 116.302 18.9333 116.356 18.6C116.409 18.2667 116.436 17.9867 116.436 17.76C116.436 17.4267 116.376 17.1733 116.256 17C116.136 16.8267 115.956 16.74 115.716 16.74C115.396 16.74 115.096 16.9067 114.816 17.24C114.549 17.56 114.329 18.0067 114.156 18.58L112.796 25H109.916L112.036 15H114.916L114.696 16.04C115.029 15.6667 115.389 15.3867 115.776 15.2C116.162 15.0133 116.582 14.92 117.036 14.92C117.742 14.92 118.289 15.1133 118.676 15.5C119.062 15.8867 119.256 16.4467 119.256 17.18C119.256 17.4867 119.216 17.8533 119.136 18.28C119.069 18.6933 118.929 19.3333 118.716 20.2C118.542 20.88 118.429 21.36 118.376 21.64C118.322 21.92 118.296 22.1533 118.296 22.34C118.296 22.62 118.362 22.8333 118.496 22.98C118.629 23.1133 118.829 23.18 119.096 23.18C119.429 23.18 119.716 23.0667 119.956 22.84C120.196 22.6133 120.469 22.14 120.776 21.42H121.616C121.189 22.66 120.669 23.5867 120.056 24.2C119.456 24.8133 118.736 25.12 117.896 25.12C117.149 25.12 116.569 24.92 116.156 24.52C115.742 24.1067 115.536 23.5533 115.536 22.86Z" fill="white"/>
<path d="M54.66 28.4C55.34 27.96 56.0667 27.62 56.84 27.38C57.6267 27.1267 58.3933 27 59.14 27C59.2333 27 59.3333 27.0067 59.44 27.02C59.56 27.02 59.7267 27.0267 59.94 27.04L56.76 42H53.88L56.78 28.42C55.8733 28.7933 55.18 29.3533 54.7 30.1C54.22 30.8467 53.98 31.74 53.98 32.78C53.98 33.0333 53.9933 33.2533 54.02 33.44C54.06 33.6267 54.12 33.8067 54.2 33.98C54.2267 34.0333 54.24 34.0733 54.24 34.1C54.2533 34.1133 54.26 34.1267 54.26 34.14C53.5133 34.14 52.9667 33.9867 52.62 33.68C52.2867 33.36 52.12 32.8667 52.12 32.2C52.12 31.5333 52.34 30.8667 52.78 30.2C53.2333 29.5333 53.86 28.9333 54.66 28.4ZM64.36 39.86C64.36 39.62 64.3867 39.32 64.44 38.96C64.5067 38.6 64.6333 38.0267 64.82 37.24C65.0067 36.48 65.1267 35.9333 65.18 35.6C65.2333 35.2667 65.26 34.9867 65.26 34.76C65.26 34.4267 65.2 34.1733 65.08 34C64.96 33.8267 64.78 33.74 64.54 33.74C64.22 33.74 63.92 33.9067 63.64 34.24C63.3733 34.56 63.1533 35.0067 62.98 35.58L61.62 42H58.74L60.86 32H63.74L63.52 33.04C63.8533 32.6667 64.2133 32.3867 64.6 32.2C64.9867 32.0133 65.4067 31.92 65.86 31.92C66.5667 31.92 67.1133 32.1133 67.5 32.5C67.8867 32.8867 68.08 33.4467 68.08 34.18C68.08 34.4867 68.04 34.8533 67.96 35.28C67.8933 35.6933 67.7533 36.3333 67.54 37.2C67.3667 37.88 67.2533 38.36 67.2 38.64C67.1467 38.92 67.12 39.1533 67.12 39.34C67.12 39.62 67.1867 39.8333 67.32 39.98C67.4533 40.1133 67.6533 40.18 67.92 40.18C68.2533 40.18 68.54 40.0667 68.78 39.84C69.02 39.6133 69.2933 39.14 69.6 38.42H70.44C70.0133 39.66 69.4933 40.5867 68.88 41.2C68.28 41.8133 67.56 42.12 66.72 42.12C65.9733 42.12 65.3933 41.92 64.98 41.52C64.5667 41.1067 64.36 40.5533 64.36 39.86ZM72.3367 38.62C72.3367 39.14 72.4101 39.5333 72.5567 39.8C72.7034 40.0533 72.9634 40.18 73.3367 40.18C73.6701 40.18 73.9967 40.0267 74.3167 39.72C74.6367 39.4 74.8567 39 74.9767 38.52V38.42L75.9567 33.84C75.9167 33.6267 75.8234 33.46 75.6767 33.34C75.5434 33.2067 75.3634 33.14 75.1367 33.14C74.4034 33.14 73.7501 33.7533 73.1767 34.98C72.6167 36.2067 72.3367 37.42 72.3367 38.62ZM76.1367 32.92V33L77.1167 28.4L80.0767 28L77.7767 38.8C77.7501 38.92 77.7301 39.0333 77.7167 39.14C77.7034 39.2333 77.6967 39.3333 77.6967 39.44C77.6967 39.7067 77.7567 39.9 77.8767 40.02C78.0101 40.1267 78.2234 40.18 78.5167 40.18C78.8634 40.18 79.1767 40.0267 79.4567 39.72C79.7367 39.4133 79.9634 38.98 80.1367 38.42H80.9767C80.5634 39.6067 80.0234 40.5 79.3567 41.1C78.7034 41.7 77.9034 42 76.9567 42C76.4101 42 75.9634 41.8533 75.6167 41.56C75.2834 41.2533 75.0767 40.8267 74.9967 40.28C74.5967 40.8933 74.1501 41.3533 73.6567 41.66C73.1634 41.9667 72.6234 42.12 72.0367 42.12C71.2101 42.12 70.5567 41.84 70.0767 41.28C69.6101 40.72 69.3767 39.9267 69.3767 38.9C69.3767 38.1533 69.4901 37.3733 69.7167 36.56C69.9434 35.7467 70.2567 35.0067 70.6567 34.34C71.1501 33.5533 71.7234 32.9533 72.3767 32.54C73.0301 32.1133 73.7434 31.9 74.5167 31.9C75.0367 31.9 75.4367 31.9933 75.7167 32.18C75.9967 32.3533 76.1367 32.6 76.1367 32.92ZM83.4845 40.18C83.8312 40.18 84.1379 40.0333 84.4045 39.74C84.6845 39.4333 84.9112 38.9933 85.0845 38.42L86.4445 32H89.3245L87.8845 38.8C87.8579 38.92 87.8379 39.0333 87.8245 39.14C87.8112 39.2333 87.8045 39.3333 87.8045 39.44C87.8045 39.7067 87.8645 39.9 87.9845 40.02C88.1179 40.1267 88.3312 40.18 88.6245 40.18C88.9712 40.18 89.2845 40.0267 89.5645 39.72C89.8445 39.4133 90.0712 38.98 90.2445 38.42H91.0845C90.6579 39.6467 90.1045 40.5733 89.4245 41.2C88.7445 41.8133 87.9579 42.12 87.0645 42.12C86.4912 42.12 86.0312 41.96 85.6845 41.64C85.3379 41.3067 85.1379 40.8333 85.0845 40.22C84.6979 40.86 84.2579 41.34 83.7645 41.66C83.2845 41.9667 82.7379 42.12 82.1245 42.12C81.4579 42.12 80.9312 41.9133 80.5445 41.5C80.1712 41.0733 79.9845 40.48 79.9845 39.72C79.9845 39.5467 79.9979 39.3533 80.0245 39.14C80.0512 38.9133 80.0912 38.6733 80.1445 38.42L81.5045 32H84.3845L82.9445 38.8C82.9179 38.9067 82.8979 39.0067 82.8845 39.1C82.8845 39.18 82.8845 39.2667 82.8845 39.36C82.8845 39.6267 82.9312 39.8333 83.0245 39.98C83.1312 40.1133 83.2845 40.18 83.4845 40.18ZM92.3622 42H89.4822L91.6022 32H94.4822L94.2222 33.24C94.8089 32.7467 95.2689 32.42 95.6022 32.26C95.9489 32.0867 96.2955 32 96.6422 32C97.0555 32 97.3889 32.1467 97.6422 32.44C97.8955 32.72 98.0222 33.0733 98.0222 33.5C98.0222 33.9133 97.8889 34.26 97.6222 34.54C97.3555 34.82 97.0089 34.96 96.5822 34.96C96.3555 34.96 96.1755 34.9067 96.0422 34.8C95.9222 34.6933 95.8355 34.4733 95.7822 34.14C95.7422 33.9267 95.6955 33.7933 95.6422 33.74C95.5889 33.6733 95.5155 33.64 95.4222 33.64C95.1955 33.64 94.9822 33.6867 94.7822 33.78C94.5822 33.8733 94.3089 34.08 93.9622 34.4L92.3622 42ZM103.93 32.92V33.06L104.15 32H107.03L105.59 38.8C105.563 38.92 105.543 39.0333 105.53 39.14C105.516 39.2333 105.51 39.3333 105.51 39.44C105.51 39.7333 105.576 39.9533 105.71 40.1C105.843 40.2333 106.05 40.3 106.33 40.3C106.676 40.3 106.99 40.14 107.27 39.82C107.55 39.4867 107.776 39.02 107.95 38.42H108.79C108.363 39.6467 107.81 40.5733 107.13 41.2C106.45 41.8133 105.663 42.12 104.77 42.12C104.196 42.12 103.736 41.96 103.39 41.64C103.056 41.32 102.863 40.8667 102.81 40.28C102.396 40.8933 101.936 41.3533 101.43 41.66C100.936 41.9667 100.403 42.12 99.8297 42.12C99.003 42.12 98.3497 41.84 97.8697 41.28C97.403 40.72 97.1697 39.9267 97.1697 38.9C97.1697 38.1533 97.283 37.3733 97.5097 36.56C97.7364 35.7467 98.0497 35.0067 98.4497 34.34C98.943 33.5533 99.5164 32.9533 100.17 32.54C100.823 32.1133 101.536 31.9 102.31 31.9C102.83 31.9 103.23 31.9933 103.51 32.18C103.79 32.3533 103.93 32.6 103.93 32.92ZM103.75 33.9C103.75 33.7 103.676 33.5267 103.53 33.38C103.383 33.22 103.183 33.14 102.93 33.14C102.196 33.14 101.543 33.7533 100.97 34.98C100.41 36.2067 100.13 37.42 100.13 38.62C100.13 39.14 100.203 39.5333 100.35 39.8C100.496 40.0533 100.756 40.18 101.13 40.18C101.476 40.18 101.81 40.0133 102.13 39.68C102.463 39.3467 102.683 38.9267 102.79 38.42L103.75 33.9ZM112.817 39.86C112.817 39.62 112.844 39.32 112.897 38.96C112.964 38.6 113.09 38.0267 113.277 37.24C113.464 36.48 113.584 35.9333 113.637 35.6C113.69 35.2667 113.717 34.9867 113.717 34.76C113.717 34.4267 113.657 34.1733 113.537 34C113.417 33.8267 113.237 33.74 112.997 33.74C112.677 33.74 112.377 33.9067 112.097 34.24C111.83 34.56 111.61 35.0067 111.437 35.58L110.077 42H107.197L109.317 32H112.197L111.977 33.04C112.31 32.6667 112.67 32.3867 113.057 32.2C113.444 32.0133 113.864 31.92 114.317 31.92C115.024 31.92 115.57 32.1133 115.957 32.5C116.344 32.8867 116.537 33.4467 116.537 34.18C116.537 34.4867 116.497 34.8533 116.417 35.28C116.35 35.6933 116.21 36.3333 115.997 37.2C115.824 37.88 115.71 38.36 115.657 38.64C115.604 38.92 115.577 39.1533 115.577 39.34C115.577 39.62 115.644 39.8333 115.777 39.98C115.91 40.1133 116.11 40.18 116.377 40.18C116.71 40.18 116.997 40.0667 117.237 39.84C117.477 39.6133 117.75 39.14 118.057 38.42H118.897C118.47 39.66 117.95 40.5867 117.337 41.2C116.737 41.8133 116.017 42.12 115.177 42.12C114.43 42.12 113.85 41.92 113.437 41.52C113.024 41.1067 112.817 40.5533 112.817 39.86ZM124.672 32.92V33.04L124.892 32H127.772L125.792 41.28C126.459 41.04 126.979 40.7067 127.352 40.28C127.739 39.84 128.059 39.22 128.312 38.42H129.152C128.845 39.4333 128.405 40.2467 127.832 40.86C127.272 41.4733 126.532 41.9067 125.612 42.16L125.312 43.6C125.072 44.72 124.652 45.5667 124.052 46.14C123.452 46.7133 122.672 47 121.712 47C121.032 47 120.485 46.8267 120.072 46.48C119.672 46.1333 119.472 45.66 119.472 45.06C119.472 44.4067 119.739 43.8267 120.272 43.32C120.819 42.8267 121.639 42.4133 122.732 42.08L122.972 41.02C122.625 41.38 122.252 41.6533 121.852 41.84C121.452 42.0267 121.025 42.12 120.572 42.12C119.745 42.12 119.092 41.84 118.612 41.28C118.145 40.72 117.912 39.9267 117.912 38.9C117.912 38.1533 118.025 37.3733 118.252 36.56C118.479 35.7467 118.792 35.0067 119.192 34.34C119.685 33.5533 120.259 32.9533 120.912 32.54C121.565 32.1133 122.279 31.9 123.052 31.9C123.572 31.9 123.972 31.9933 124.252 32.18C124.532 32.3533 124.672 32.6 124.672 32.92ZM124.492 33.88C124.479 33.6667 124.399 33.4933 124.252 33.36C124.105 33.2133 123.912 33.14 123.672 33.14C122.939 33.14 122.285 33.7533 121.712 34.98C121.152 36.2067 120.872 37.42 120.872 38.62C120.872 39.14 120.945 39.5333 121.092 39.8C121.239 40.0533 121.499 40.18 121.872 40.18C122.192 40.18 122.505 40.0333 122.812 39.74C123.132 39.4467 123.352 39.0733 123.472 38.62L124.492 33.88ZM122.532 43.08C121.865 43.3333 121.372 43.5933 121.052 43.86C120.732 44.14 120.572 44.4467 120.572 44.78C120.572 44.9533 120.639 45.1067 120.772 45.24C120.905 45.3733 121.065 45.44 121.252 45.44C121.479 45.44 121.699 45.28 121.912 44.96C122.125 44.64 122.292 44.2067 122.412 43.66L122.532 43.08ZM134.809 32.92V33.06L135.029 32H137.909L136.469 38.8C136.442 38.92 136.422 39.0333 136.409 39.14C136.395 39.2333 136.389 39.3333 136.389 39.44C136.389 39.7333 136.455 39.9533 136.589 40.1C136.722 40.2333 136.929 40.3 137.209 40.3C137.555 40.3 137.869 40.14 138.149 39.82C138.429 39.4867 138.655 39.02 138.829 38.42H139.669C139.242 39.6467 138.689 40.5733 138.009 41.2C137.329 41.8133 136.542 42.12 135.649 42.12C135.075 42.12 134.615 41.96 134.269 41.64C133.935 41.32 133.742 40.8667 133.689 40.28C133.275 40.8933 132.815 41.3533 132.309 41.66C131.815 41.9667 131.282 42.12 130.709 42.12C129.882 42.12 129.229 41.84 128.749 41.28C128.282 40.72 128.049 39.9267 128.049 38.9C128.049 38.1533 128.162 37.3733 128.389 36.56C128.615 35.7467 128.929 35.0067 129.329 34.34C129.822 33.5533 130.395 32.9533 131.049 32.54C131.702 32.1133 132.415 31.9 133.189 31.9C133.709 31.9 134.109 31.9933 134.389 32.18C134.669 32.3533 134.809 32.6 134.809 32.92ZM134.629 33.9C134.629 33.7 134.555 33.5267 134.409 33.38C134.262 33.22 134.062 33.14 133.809 33.14C133.075 33.14 132.422 33.7533 131.849 34.98C131.289 36.2067 131.009 37.42 131.009 38.62C131.009 39.14 131.082 39.5333 131.229 39.8C131.375 40.0533 131.635 40.18 132.009 40.18C132.355 40.18 132.689 40.0133 133.009 39.68C133.342 39.3467 133.562 38.9267 133.669 38.42L134.629 33.9Z" fill="white"/>
<circle cx="26.8793" cy="25" r="23" stroke="white" stroke-width="4"/>
<path d="M25.8282 38.6558L26.3748 36.3194L29.9692 35.2982L34.7728 14.1623L31.6256 13.1875L32.4539 10.8047H44.0488L42.8728 13.2803L39.0795 14.1623L34.3919 35.2982L37.9366 36.3194L37.4231 38.6558H25.8282Z" fill="white"/>
<path d="M23.1099 22.636L22.3457 22.4807C24.7785 17.9468 20.1999 17.0399 18.9825 20.2055C17.8401 23.177 20.9681 25.1536 23.3742 28.3408C27.177 33.3807 27.6622 36.681 25.5427 40.8485C20.1931 51.314 5.6431 53.5421 8.31324 43.7784C9.22913 40.422 11.5522 37.3942 16.5189 36.0549C17.1089 36.3862 16.6745 36.7704 16.3702 37.0505C12.8926 40.2353 12.4255 47.9559 15.7952 46.5251C17.4151 45.8618 19.4753 43.513 20.0976 40.5985C20.8153 37.206 18.0761 34.3096 15.9053 31.4209C10.8181 24.5969 15.8406 15.1664 24.5673 15.815C27.8735 16.0664 27.1688 21.5546 23.11 22.636L23.1099 22.636Z" fill="white"/>
</svg>
