<svg width="51" height="51" viewBox="0 0 51 51" fill="none" xmlns="http://www.w3.org/2000/svg">
<g clip-path="url(#clip0_95_69)">
<path d="M15.8552 33.6989L17.3748 40.932C17.7162 42.5742 17.8585 43.7207 17.8015 44.3741C18.6326 41.1088 19.2132 37.5503 19.5436 33.6989H21.3708C20.5851 39.9691 19.5489 44.5255 18.2626 47.3679C17.2605 49.5583 16.1626 50.6535 14.9671 50.6535C14.6484 50.6535 14.2554 50.5122 13.7891 50.2317V48.7202C14.0169 48.7692 14.2842 48.7954 14.5917 48.7954C15.1494 48.7954 15.5989 48.5686 15.9409 48.1161C16.3503 47.5646 16.5553 46.9449 16.5553 46.2579C16.5553 45.7888 16.3955 44.8262 16.0772 43.3701L13.96 33.6989H15.8551H15.8552ZM4.22563 29.2532L7.00884 41.7111H7.02603L9.82632 29.2532H12.1142C12.6152 35.4314 12.9111 41.0843 13.0019 46.2082H11.073C11.0051 41.4184 10.8171 36.9143 10.5097 32.6953H10.4929L7.55561 46.2082H6.08667L3.16714 32.6953H3.14995C2.93335 36.7472 2.79702 41.2512 2.74019 46.2082H0.981201C1.09487 40.1795 1.37935 34.5284 1.83462 29.2532H4.22573H4.22563Z" fill="#00758F"/>
<path d="M35.4048 29.0016C38.3987 29.0016 39.8957 31.8076 39.8957 37.4169C39.8957 40.4651 39.4455 42.7675 38.5459 44.323C38.3838 44.6072 38.2046 44.8528 38.016 45.0803L40.1346 46.6171L40.1326 46.6169L39.3803 48.5227L36.6212 46.1609C36.1639 46.3596 35.6607 46.4589 35.1124 46.4589C33.6423 46.4589 32.5443 45.8304 31.8183 44.575C31.0214 43.1861 30.6232 40.9997 30.6232 38.0195C30.6232 34.9886 31.0726 32.6949 31.9724 31.1374C32.7919 29.7128 33.9363 29.0015 35.4048 29.0015V29.0016ZM26.2369 29.0263C27.3069 29.0263 28.2798 29.4463 29.1562 30.2834L28.7111 31.7386C27.9612 31.2709 27.2218 31.0361 26.4927 31.0361C25.9011 31.0361 25.4453 31.245 25.1275 31.6654C24.808 32.082 24.6103 32.6181 24.6103 33.2717C24.6103 34.276 25.098 35.1469 25.9985 35.8827C26.2935 36.1193 26.5875 36.3586 26.8804 36.6006L26.9476 36.656L26.9813 36.6838L27.0486 36.7393L27.0822 36.7671L27.1494 36.8227C27.831 37.3864 28.4724 37.9245 28.4724 37.9245C29.3728 38.8622 29.8216 39.8619 29.8216 41.5085C29.8216 42.9465 29.4625 44.1268 28.7464 45.0505C28.0299 45.9699 27.0673 46.431 25.8619 46.431C24.7344 46.431 23.6417 45.9003 22.5834 44.8479L23.0785 43.3914C23.9893 44.0612 24.8135 44.3957 25.5537 44.3957C26.2478 44.3957 26.7912 44.1684 27.1842 43.7194C27.5765 43.2671 27.8116 42.6363 27.8116 41.8364C27.8116 40.8297 27.3342 39.9691 26.4585 39.2472C26.1845 39.025 25.9112 38.8007 25.6387 38.5742L25.5716 38.5185C25.4484 38.4164 25.3243 38.3129 25.2027 38.2116L25.1368 38.1566C24.5455 37.6632 24.0342 37.2321 24.0342 37.2321C23.1588 36.2927 22.7199 35.2848 22.7199 33.6241C22.7199 32.2506 23.0472 31.1404 23.7009 30.2959C24.3562 29.4495 25.2016 29.0263 26.2369 29.0263ZM43.4141 29.2532V44.1225H47.0506V46.2082H41.5698V29.2532H43.4141ZM49.0713 44.129V44.4814H48.6715V46.2063H48.3659V44.4814H47.9505V44.129H49.0714H49.0713ZM49.8096 44.129L50.1935 45.545L50.5461 44.129H50.9794V46.2063H50.6914V44.6254L50.29 46.2063H50.0823L49.6802 44.6254H49.6648V46.2063H49.3922V44.129H49.8097H49.8096ZM35.2166 31.0867C33.4523 31.0867 32.5697 33.2228 32.5697 37.4922C32.5697 39.9377 32.8036 41.7111 33.2705 42.8164C33.7029 43.8393 34.3801 44.3497 35.3023 44.3497C37.0666 44.3497 37.9491 42.197 37.9491 37.8936C37.9491 35.4823 37.7152 33.7241 37.2489 32.6182C36.816 31.5976 36.139 31.0867 35.2167 31.0867H35.2166Z" fill="#F29111"/>
<path d="M30.5923 1.75566C31.1776 -0.354081 33.224 1.24363 34.0181 1.98059C34.2127 2.16497 34.436 2.55451 34.6591 2.6985C35.0073 2.71855 35.3551 2.75853 35.7039 2.77987C36.358 3.00537 36.9707 3.18962 37.4861 3.62027C39.8814 5.68976 41.4407 7.79864 42.8757 11.282C43.1824 12.0198 43.3356 12.8183 43.5861 13.6167C43.9337 14.8068 44.3244 16.0561 44.7279 17.1814C44.9085 17.715 45.0483 18.3082 45.2992 18.7588C45.3971 18.9648 45.6753 19.0256 45.8416 19.1486C46.3014 19.4978 46.8584 19.7628 47.2909 20.1726C48.0984 20.9112 48.8792 21.7915 49.5889 22.6926C49.8535 23.0405 50.0337 23.5329 50.2858 23.9008V24.0865C50.0621 24.1872 49.8391 24.2903 49.616 24.373C49.1286 24.5567 48.6968 24.5151 48.224 24.6989C47.9318 24.8233 47.569 24.9873 47.2625 25.029L47.2909 25.0709C47.4711 25.8266 48.4465 26.4412 48.8926 26.8932C49.4344 27.4668 49.9365 28.1625 50.3406 28.9615C50.4801 29.1654 50.6197 29.3509 50.7585 29.5542C50.8556 29.7602 50.883 30.0267 50.9812 30.2104V30.2726C50.8724 30.2163 50.7942 30.1088 50.7201 29.9965L50.6758 29.9287C50.6316 29.8614 50.587 29.7952 50.5361 29.7406C50.2287 29.4326 49.9234 29.0641 49.616 28.7777C49.0874 28.2858 48.4745 28.0002 47.9318 27.5064C47.6249 27.2197 47.3325 26.8932 47.04 26.5651C46.7749 26.2776 46.4829 25.7254 46.3163 25.3157C46.2181 25.0893 46.2046 24.8233 46.0925 24.6595C46.1125 24.386 46.2833 24.3048 46.4557 24.238L46.4954 24.2227C46.5548 24.2001 46.613 24.1774 46.6638 24.1475C47.3878 23.6965 48.251 23.5329 49.3657 23.5739C49.3237 23.1633 48.6272 22.6517 48.4048 22.4058C47.9585 21.9339 47.486 21.4415 47.0125 21.012C46.7617 20.787 46.3293 20.6229 46.0514 20.439C45.6753 20.2135 44.8395 19.9882 44.6311 19.5587C44.2771 18.8816 44.0228 18.074 43.7759 17.2582L43.7087 17.0356C43.6863 16.9614 43.6639 16.8872 43.6414 16.8131C43.3496 15.8307 42.9871 14.8065 42.6946 13.8006C42.5416 13.31 42.4714 12.8793 42.304 12.4087C41.2876 9.5207 39.7834 7.1028 37.9597 5.40237C37.3604 4.84907 36.6921 4.33704 35.9544 3.98904C35.5364 3.8038 35.0346 3.90623 34.5892 3.76411H34.296C34.0458 3.66068 33.837 3.27156 33.6417 3.06641C33.2106 2.63689 32.7788 2.3485 32.2631 2.04205C32.0825 1.91913 31.5666 1.63288 31.3865 1.85824C31.275 1.89936 31.2184 1.96111 31.191 2.12529C31.08 2.37027 31.1776 2.73933 31.2466 2.96526C31.4558 3.61999 31.748 4.0091 32.0132 4.56239C32.2492 5.05308 32.5422 5.60638 32.7095 6.1399C33.0705 7.28675 33.2385 8.55738 33.573 9.70409C33.697 10.1353 33.8932 10.626 34.0738 11.015C34.2268 11.3237 34.505 11.5469 34.5892 11.9378C34.757 12.3475 34.338 13.6995 34.2411 14.1289C33.8783 15.809 33.9486 18.1443 34.3664 19.6007L34.3886 19.6774L34.4109 19.7552C34.5634 20.2886 34.7267 20.863 35.1323 21.0121C35.1602 20.9714 35.1323 20.9928 35.1876 20.9714C35.2858 19.8442 35.3134 18.7587 35.5783 17.8767C35.7313 17.3253 36.0369 16.9355 36.2463 16.4853C36.386 16.608 36.386 16.9777 36.4692 17.2224C36.6504 17.8571 36.8451 18.5529 37.0685 19.1895C37.5271 20.5004 38.0431 21.7713 38.6278 22.918C38.8236 23.3276 39.1014 23.7784 39.352 24.1474C39.4636 24.2902 39.5886 24.3727 39.6725 24.5565H39.6999V24.6184C39.2821 24.3925 39.0172 23.7584 38.684 23.3882C38.0567 22.6923 37.3054 21.6474 36.873 20.6446C36.6921 20.069 36.4966 19.5173 36.3017 18.9445V18.9031C36.2184 19.0667 36.2463 19.2292 36.2046 19.4767C36.0238 20.5004 36.163 21.6681 35.5364 22.0363C34.826 22.4676 34.2961 21.3405 34.0738 20.8283C33.3632 19.1283 33.1686 16.2604 33.6697 13.9453C33.781 13.4329 33.7961 12.8183 33.9905 12.4091C33.9485 12.0392 33.7541 11.938 33.6417 11.7114C33.4468 11.324 33.2799 10.8727 33.1273 10.4425C32.8341 9.60208 32.6255 8.59792 32.403 7.69664C32.3051 7.32858 32.2771 6.9591 32.1795 6.61068C32.0131 6.07887 31.7064 5.54535 31.4698 5.07486C31.1494 4.39864 30.2162 3.08804 30.5923 1.75566ZM35.1599 5.76927C35.1971 5.824 35.242 5.87185 35.2885 5.91899L35.3446 5.97543C35.4193 6.05136 35.4916 6.13131 35.536 6.24019C35.6063 6.38431 35.6194 6.52658 35.7036 6.67099C35.7036 7.1634 35.6063 7.49076 35.4099 7.69477C35.4099 7.69477 35.3965 7.71626 35.3828 7.73632C35.2714 7.4081 35.1739 7.08159 35.0618 6.75366C34.9237 6.46741 34.7285 6.24033 34.616 5.91325H34.5889V5.87214C34.757 5.81125 34.9237 5.76927 35.1599 5.76927Z" fill="#00758F"/>
</g>
<defs>
<clipPath id="clip0_95_69">
<rect width="50" height="50" fill="white" transform="translate(0.981201 0.705078)"/>
</clipPath>
</defs>
</svg>
