<svg width="50" height="50" viewBox="0 0 50 50" fill="none" xmlns="http://www.w3.org/2000/svg">
<path d="M24.7288 50C24.5593 50 24.4011 49.9262 24.2541 49.7971L22.751 48.339C22.5249 48.1359 22.638 48.0621 22.7058 48.0252C23.0109 47.8591 23.0674 47.8221 23.3839 47.527C23.4178 47.4899 23.4631 47.5084 23.4969 47.5453L24.6498 48.6712C24.6949 48.7081 24.7515 48.7081 24.7853 48.6712L29.2948 44.4076C29.34 44.3707 29.3627 44.2968 29.3627 44.2046V35.696C29.3627 35.6036 29.34 35.5299 29.2948 35.4929L24.7853 31.2478C24.7401 31.2108 24.6836 31.2108 24.6498 31.2478L20.1402 35.4929C20.0951 35.5298 20.0724 35.6221 20.0724 35.6959V44.2045C20.0724 44.2784 20.0951 44.3706 20.1402 44.4076L21.3722 45.5704C22.039 46.124 22.4571 45.4781 22.4571 44.8321V36.4341C22.4571 36.3235 22.5137 36.2126 22.5928 36.2126H23.1691C23.237 36.2126 23.3048 36.3049 23.3048 36.4341V44.8321C23.3048 46.2901 22.8188 47.1392 21.9711 47.1392C21.7112 47.1392 21.5078 47.1392 20.9314 46.6777L19.7447 45.5704C19.4508 45.2936 19.27 44.7767 19.27 44.223V35.7144C19.27 35.1607 19.4508 34.6438 19.7447 34.367L24.2541 30.1035C24.5367 29.8451 24.921 29.8451 25.2035 30.1035L29.713 34.367C30.0068 34.6438 30.1877 35.1607 30.1877 35.7144V44.223C30.1877 44.7767 30.0068 45.2936 29.713 45.5704L25.2035 49.8339C25.0566 49.9448 24.8871 50 24.7289 50H24.7288ZM26.1189 44.1492C24.1412 44.1492 23.7343 42.6727 23.7343 41.4176C23.7343 41.3068 23.7908 41.1961 23.8699 41.1961H24.4576C24.5254 41.1961 24.5819 41.2699 24.5819 41.3807C24.6724 42.3589 24.9323 42.8388 26.1303 42.8388C27.0796 42.8388 27.4866 42.4881 27.4866 41.6575C27.4866 41.1776 27.3735 40.8271 25.893 40.587C24.661 40.3839 23.8925 39.9411 23.8925 38.3353C23.8925 36.8402 24.6611 35.9543 25.9495 35.9543C27.3961 35.9543 28.1082 36.7665 28.1986 38.5381C28.1986 38.5937 28.1873 38.649 28.1647 38.7044C28.142 38.7413 28.1082 38.7782 28.0742 38.7782H27.4865C27.43 38.7782 27.3735 38.7044 27.3622 38.6121C27.2266 37.597 26.8762 37.2647 25.9495 37.2647C24.9097 37.2647 24.7853 37.8554 24.7853 38.2983C24.7853 38.8336 24.9323 38.9997 26.3337 39.2949C27.7238 39.5904 28.3794 40.0149 28.3794 41.6021C28.3681 43.2263 27.5544 44.1492 26.1189 44.1492Z" fill="#539E43"/>
<path d="M10.7369 16.7222C10.7369 16.39 10.6239 16.076 10.443 15.9099L5.65101 11.4065C5.5718 11.3326 5.48144 11.2957 5.39109 11.2772H5.34581C5.25545 11.2772 5.165 11.3326 5.08589 11.4065L0.293855 15.9099C0.112946 16.076 0 16.3898 0 16.7222L0.0113435 28.8299C0.0113435 28.9959 0.0678653 29.162 0.158222 29.236C0.248676 29.3283 0.361622 29.3283 0.440831 29.236L3.28892 26.5781C3.46974 26.4121 3.58278 26.0983 3.58278 25.7661V20.0997C3.58278 19.7676 3.69573 19.4538 3.87663 19.2877L5.08589 18.1433C5.17634 18.051 5.27804 18.0139 5.37974 18.0139C5.48144 18.0139 5.58314 18.051 5.66235 18.1433L6.87161 19.2877C7.05251 19.4538 7.16546 19.7674 7.16546 20.0997V25.7661C7.16546 26.0983 7.2785 26.4121 7.45932 26.5781L10.3074 29.236C10.3514 29.2812 10.4023 29.3052 10.4543 29.3052C10.5063 29.3052 10.5573 29.2812 10.6013 29.236C10.6917 29.162 10.7482 28.9959 10.7482 28.8299L10.7369 16.7222ZM33.7703 0.0554545C33.68 -0.0184849 33.5669 -0.0184849 33.4877 0.0554545C33.3974 0.147759 33.3408 0.295318 33.3408 0.461403V12.4586C33.3408 12.5693 33.307 12.6799 33.2391 12.7539C33.1714 12.8091 33.1035 12.8091 33.0357 12.7539L31.8377 11.628C31.7499 11.5463 31.6506 11.5034 31.5495 11.5034C31.4484 11.5034 31.3491 11.5463 31.2613 11.628L26.4692 16.15C26.2884 16.3161 26.1754 16.6299 26.1754 16.962V25.9874C26.1754 26.3196 26.2884 26.6336 26.4692 26.7996L31.2613 31.3216C31.3491 31.4033 31.4484 31.4462 31.5495 31.4462C31.6506 31.4462 31.7499 31.4033 31.8377 31.3216L36.6298 26.7996C36.8106 26.6336 36.9236 26.3197 36.9236 25.9874V3.48845C36.9236 3.13775 36.8106 2.82411 36.6298 2.65787L33.7704 0.0554545H33.7703ZM33.3296 23.016C33.3296 23.1083 33.307 23.182 33.2617 23.2189L31.623 24.7693C31.6001 24.7875 31.575 24.797 31.5495 24.797C31.524 24.797 31.4989 24.7875 31.476 24.7693L29.8373 23.2189C29.792 23.182 29.7694 23.0897 29.7694 23.016V19.9151C29.7694 19.8228 29.792 19.749 29.8373 19.7122L31.476 18.1617C31.4989 18.1434 31.524 18.134 31.5495 18.134C31.575 18.134 31.6001 18.1434 31.623 18.1617L33.2617 19.7122C33.307 19.7489 33.3296 19.8414 33.3296 19.9151V23.016ZM49.7174 19.8414C49.8983 19.6753 50 19.3615 50 19.0291V16.8328C50 16.5007 49.887 16.1869 49.7174 16.0208L44.9593 11.5173C44.8715 11.4357 44.7721 11.3927 44.6711 11.3927C44.57 11.3927 44.4707 11.4357 44.3828 11.5173L39.5908 16.0391C39.4099 16.2052 39.2969 16.519 39.2969 16.8512V25.8768C39.2969 26.2089 39.41 26.5227 39.5908 26.6888L44.3489 31.1185C44.5298 31.2845 44.7445 31.2845 44.9141 31.1185L47.796 28.4978C47.8865 28.4239 47.943 28.2578 47.943 28.0917C47.943 27.9257 47.8865 27.7596 47.796 27.6856L42.9814 23.1637C42.891 23.0714 42.8344 22.9238 42.8344 22.7577V19.9338C42.8344 19.7677 42.891 19.6016 42.9814 19.5277L44.4845 18.1249C44.5285 18.0797 44.5795 18.0557 44.6315 18.0557C44.6834 18.0557 44.7344 18.0797 44.7784 18.1249L46.2816 19.5277C46.372 19.62 46.4285 19.7676 46.4285 19.9338V22.1486C46.4285 22.3147 46.485 22.4808 46.5754 22.5546C46.6194 22.5998 46.6704 22.6238 46.7224 22.6238C46.7744 22.6238 46.8253 22.5998 46.8693 22.5546L49.7174 19.8414V19.8414Z" fill="#333333"/>
<path d="M44.5977 19.4169C44.6144 19.3988 44.6341 19.3892 44.6542 19.3892C44.6743 19.3892 44.6939 19.3988 44.7107 19.4169L45.6262 20.2843C45.66 20.3214 45.6826 20.3766 45.6826 20.4504V22.1855C45.6826 22.2593 45.6601 22.3147 45.6262 22.3516L44.7107 23.2191C44.6939 23.2371 44.6743 23.2468 44.6542 23.2468C44.6341 23.2468 44.6144 23.2371 44.5977 23.2191L43.6823 22.3516C43.6483 22.3147 43.6257 22.2593 43.6257 22.1855V20.4506C43.6257 20.3766 43.6482 20.3212 43.6823 20.2845L44.5977 19.4169V19.4169Z" fill="#539E43"/>
<path d="M23.5194 16.0391L18.7387 11.5542C18.6918 11.5155 18.6425 11.4846 18.5918 11.4619L13.2346 26.4491C13.279 26.5376 13.3326 26.6126 13.3929 26.6706L18.1736 31.1557C18.3093 31.2849 18.4675 31.3217 18.6144 31.2478L23.6438 16.2239C23.6099 16.1501 23.5646 16.0945 23.5194 16.0393V16.0391Z" fill="url(#paint0_linear_452_39)"/>
<path fill-rule="evenodd" clip-rule="evenodd" d="M18.0153 9.91162L17.9475 9.96704H18.0379L18.0153 9.91162V9.91162Z" fill="url(#paint1_linear_452_39)"/>
<path fill-rule="evenodd" clip-rule="evenodd" d="M23.5309 26.6521C23.6665 26.5229 23.7682 26.3014 23.8135 26.0615L18.5692 11.4436C18.4335 11.4067 18.2866 11.425 18.1624 11.5542L13.4155 16.0209L18.5352 31.2663C18.6097 31.2464 18.682 31.2092 18.75 31.1557L23.5308 26.6522L23.5309 26.6521Z" fill="url(#paint2_linear_452_39)"/>
<path fill-rule="evenodd" clip-rule="evenodd" d="M23.9717 26.5044L23.9377 26.4121V26.5413L23.9716 26.5044H23.9717Z" fill="url(#paint3_linear_452_39)"/>
<path fill-rule="evenodd" clip-rule="evenodd" d="M23.5308 26.6521L18.7614 31.1371C18.694 31.1932 18.6215 31.2306 18.5466 31.2478L18.6371 31.5247L23.9264 26.523V26.4122L23.7907 26.043C23.7682 26.3014 23.6665 26.5229 23.5308 26.6521V26.6521Z" fill="url(#paint4_linear_452_39)"/>
<path fill-rule="evenodd" clip-rule="evenodd" d="M23.5308 26.6521L18.7614 31.1371C18.694 31.1932 18.6215 31.2306 18.5466 31.2478L18.6371 31.5247L23.9264 26.523V26.4122L23.7907 26.043C23.7682 26.3014 23.6665 26.5229 23.5308 26.6521V26.6521Z" fill="url(#paint5_linear_452_39)"/>
<defs>
<linearGradient id="paint0_linear_452_39" x1="17.7394" y1="22.3984" x2="32.9707" y2="17.3312" gradientUnits="userSpaceOnUse">
<stop offset="0.1376" stop-color="#41873F"/>
<stop offset="0.4032" stop-color="#54A044"/>
<stop offset="0.7136" stop-color="#66B848"/>
<stop offset="0.9081" stop-color="#6CC04A"/>
</linearGradient>
<linearGradient id="paint1_linear_452_39" x1="13.9594" y1="9.91906" x2="22.7616" y2="9.91906" gradientUnits="userSpaceOnUse">
<stop offset="0.09192" stop-color="#6CC04A"/>
<stop offset="0.2864" stop-color="#66B848"/>
<stop offset="0.5968" stop-color="#54A044"/>
<stop offset="0.8624" stop-color="#41873F"/>
</linearGradient>
<linearGradient id="paint2_linear_452_39" x1="12.9592" y1="21.346" x2="23.9694" y2="21.346" gradientUnits="userSpaceOnUse">
<stop offset="0.09192" stop-color="#6CC04A"/>
<stop offset="0.2864" stop-color="#66B848"/>
<stop offset="0.5968" stop-color="#54A044"/>
<stop offset="0.8624" stop-color="#41873F"/>
</linearGradient>
<linearGradient id="paint3_linear_452_39" x1="20.6416" y1="26.4589" x2="23.9472" y2="26.4589" gradientUnits="userSpaceOnUse">
<stop offset="0.09192" stop-color="#6CC04A"/>
<stop offset="0.2864" stop-color="#66B848"/>
<stop offset="0.5968" stop-color="#54A044"/>
<stop offset="0.8624" stop-color="#41873F"/>
</linearGradient>
<linearGradient id="paint4_linear_452_39" x1="12.9592" y1="28.7989" x2="23.9692" y2="28.7989" gradientUnits="userSpaceOnUse">
<stop offset="0.09192" stop-color="#6CC04A"/>
<stop offset="0.2864" stop-color="#66B848"/>
<stop offset="0.5968" stop-color="#54A044"/>
<stop offset="0.8624" stop-color="#41873F"/>
</linearGradient>
<linearGradient id="paint5_linear_452_39" x1="25.5733" y1="14.4727" x2="18.5461" y2="37.0206" gradientUnits="userSpaceOnUse">
<stop stop-color="#41873F"/>
<stop offset="0.3288" stop-color="#418B3D"/>
<stop offset="0.6352" stop-color="#419637"/>
<stop offset="0.9319" stop-color="#3FA92D"/>
<stop offset="1" stop-color="#3FAE2A"/>
</linearGradient>
</defs>
</svg>
