<svg width="50" height="51" viewBox="0 0 50 51" fill="none" xmlns="http://www.w3.org/2000/svg">
<path d="M26 41.7051C38.7025 41.7051 49 35.4371 49 27.7051C49 19.9731 38.7025 13.7051 26 13.7051C13.2975 13.7051 3 19.9731 3 27.7051C3 35.4371 13.2975 41.7051 26 41.7051Z" fill="url(#paint0_radial_95_417)"/>
<path d="M26 40.7051C38.1503 40.7051 48 34.8848 48 27.7051C48 20.5254 38.1503 14.7051 26 14.7051C13.8497 14.7051 4 20.5254 4 27.7051C4 34.8848 13.8497 40.7051 26 40.7051Z" fill="#6280B6"/>
<path d="M30.5172 32.5437L31.6492 25.8724C31.8105 25.3014 31.837 24.6918 31.7262 24.1053C31.6153 23.5188 31.3709 22.9763 31.0179 22.5328C30.0323 21.7317 28.8256 21.3692 27.6234 21.5128H25.6665L26.2283 18.2102C26.2385 18.1487 26.2368 18.0854 26.2232 18.0247C26.2096 17.9641 26.1845 17.9077 26.1496 17.8594C26.1148 17.8112 26.071 17.7723 26.0216 17.7456C25.9721 17.719 25.9181 17.7051 25.8634 17.7051H23.1478C23.0616 17.705 22.9781 17.7393 22.9115 17.8021C22.8449 17.8648 22.7995 17.9521 22.7829 18.0489L21.5796 25.1322C21.487 24.3748 21.206 23.664 20.77 23.0845C20.2847 22.5281 19.6991 22.0996 19.0543 21.8289C18.4094 21.5581 17.7207 21.4516 17.0361 21.5167H11.8053C11.7191 21.5167 11.6355 21.551 11.5689 21.6137C11.5024 21.6765 11.4569 21.7637 11.4404 21.8606L9.00657 36.198C8.99633 36.2595 8.99808 36.3228 9.01168 36.3835C9.02528 36.4441 9.0504 36.5006 9.08525 36.5488C9.1201 36.597 9.16382 36.6359 9.2133 36.6626C9.26278 36.6892 9.31678 36.7031 9.37147 36.7031H12.0921C12.1784 36.7032 12.2619 36.6689 12.3285 36.6061C12.395 36.5434 12.4405 36.4561 12.457 36.3593L13.046 32.8915H15.0826C15.9819 32.919 16.8795 32.7879 17.7439 32.5029C18.4727 32.2269 19.1392 31.7698 19.6957 31.1644C20.1517 30.6889 20.5409 30.1359 20.8498 29.5247L20.3627 32.3903C20.3525 32.4517 20.3542 32.5151 20.3678 32.5757C20.3814 32.6363 20.4065 32.6928 20.4414 32.741C20.4762 32.7893 20.5199 32.8281 20.5694 32.8548C20.6189 32.8815 20.6729 32.8953 20.7276 32.8954H23.4432C23.5294 32.8954 23.6129 32.8611 23.6795 32.7984C23.7461 32.7356 23.7915 32.6484 23.8081 32.5515L25.1438 24.6815H27.0005C27.7914 24.6815 28.0189 24.8621 28.0868 24.9398C28.1546 25.0176 28.2565 25.2604 28.1292 26.0453L27.0515 32.3883C27.0412 32.4498 27.043 32.5131 27.0566 32.5738C27.0702 32.6344 27.0953 32.6908 27.1301 32.7391C27.165 32.7873 27.2087 32.8262 27.2582 32.8529C27.3077 32.8795 27.3617 32.8934 27.4164 32.8934H30.1659C30.2505 32.8896 30.3314 32.8529 30.3953 32.7893C30.4592 32.7258 30.5022 32.6391 30.5172 32.5437ZM17.9662 27.038C17.8832 27.8536 17.545 28.6072 17.0141 29.1595C16.3472 29.6343 15.5652 29.8528 14.7822 29.7831H13.5738L14.4479 24.6329H16.011C17.16 24.6329 17.6217 24.9146 17.8084 25.1497C17.9508 25.4333 18.0385 25.7486 18.0658 26.0743C18.093 26.4 18.059 26.7286 17.9662 27.038ZM42.0939 23.0865C41.6086 22.5301 41.0231 22.1016 40.3782 21.8308C39.7333 21.56 39.0446 21.4535 38.36 21.5187H33.1139C33.0277 21.5186 32.9441 21.5529 32.8776 21.6157C32.811 21.6784 32.7656 21.7657 32.749 21.8625L30.3152 36.2C30.305 36.2615 30.3067 36.3248 30.3203 36.3854C30.3339 36.4461 30.359 36.5025 30.3939 36.5508C30.4287 36.599 30.4725 36.6378 30.5219 36.6645C30.5714 36.6912 30.6254 36.705 30.6801 36.7051H33.4093C33.4955 36.7051 33.579 36.6708 33.6456 36.6081C33.7122 36.5454 33.7576 36.4581 33.7742 36.3612L34.3631 32.8934H36.3998C37.299 32.9209 38.1966 32.7899 39.061 32.5049C39.7899 32.2288 40.4564 31.7717 41.0128 31.1663C41.9657 30.1833 42.6078 28.867 42.839 27.4227C43.0216 26.6838 43.0493 25.906 42.9198 25.1525C42.7904 24.399 42.5074 23.6912 42.0939 23.0865ZM39.2647 27.038C39.1817 27.8536 38.8434 28.6072 38.3125 29.1595C37.644 29.6348 36.8601 29.8527 36.0756 29.7812H34.8706L35.7446 24.6309H37.3078C38.4568 24.6309 38.9184 24.9126 39.1051 25.1477C39.2481 25.4315 39.3363 25.747 39.3638 26.0731C39.3913 26.3991 39.3575 26.7281 39.2647 27.038Z" fill="white"/>
<path d="M16.3995 23.7282C16.752 23.6759 17.1098 23.7065 17.4522 23.8183C17.7946 23.93 18.1149 24.1208 18.3944 24.3795C18.5747 24.7069 18.6897 25.0784 18.7308 25.4658C18.7718 25.8533 18.7378 26.2467 18.6313 26.6164C18.5379 27.5268 18.1647 28.3652 17.5824 28.9729C16.8801 29.5064 16.0499 29.7566 15.2167 29.6858H13.6188L14.5991 23.734L16.3995 23.7282ZM10 35.7051H12.6271L13.2496 31.9247H15.4993C16.3274 31.9514 17.154 31.8273 17.95 31.5567C18.6032 31.3023 19.2004 30.8798 19.6981 30.3197C20.5597 29.4057 21.14 28.1806 21.3482 26.8361C21.5131 26.1675 21.5421 25.4625 21.4328 24.7783C21.3235 24.094 21.079 23.4498 20.7192 22.8978C20.2854 22.3917 19.7631 22.0033 19.1889 21.7597C18.6147 21.5161 18.0023 21.4231 17.3945 21.4874H12.351L10 35.7051ZM23.2761 17.7051H25.8901L25.2579 21.4854H27.5795C28.6457 21.3538 29.717 21.6734 30.6019 22.3872C30.8948 22.7798 31.0951 23.2563 31.1825 23.769C31.27 24.2817 31.2416 24.8125 31.1003 25.3082L30.0105 31.9247H27.3654L28.4029 25.6338C28.4751 25.3937 28.5009 25.1375 28.4783 24.8841C28.4557 24.6307 28.3852 24.3865 28.2722 24.1694C27.8938 23.8498 27.4265 23.712 26.9652 23.7841H24.8821L23.5391 31.9305H20.9251L23.2761 17.7051ZM36.9018 23.7282C37.2543 23.6759 37.6121 23.7065 37.9545 23.8183C38.2969 23.93 38.6171 24.1208 38.8966 24.3795C39.077 24.7069 39.192 25.0784 39.233 25.4658C39.2741 25.8533 39.2401 26.2467 39.1335 26.6164C39.0401 27.5268 38.667 28.3652 38.0847 28.9729C37.381 29.5076 36.5489 29.7578 35.714 29.6858H34.1162L35.0965 23.734L36.9018 23.7282ZM30.5023 35.7051H33.1294L33.7519 31.9247H36.0016C36.8297 31.9514 37.6563 31.8273 38.4523 31.5567C39.1055 31.3023 39.7026 30.8798 40.2004 30.3197C41.062 29.4057 41.6423 28.1806 41.8505 26.8361C42.0154 26.1675 42.0443 25.4625 41.9351 24.7783C41.8258 24.094 41.5813 23.4498 41.2215 22.8978C40.7876 22.3917 40.2654 22.0033 39.6912 21.7597C39.1169 21.5161 38.5046 21.4231 37.8968 21.4874H32.8451L30.5023 35.7051Z" fill="#000004"/>
<defs>
<radialGradient id="paint0_radial_95_417" cx="0" cy="0" r="1" gradientUnits="userSpaceOnUse" gradientTransform="translate(16.8099 18.6284) scale(30.2023 34.9458)">
<stop stop-color="white"/>
<stop offset="0.5" stop-color="#4C6B96"/>
<stop offset="1" stop-color="#231F20"/>
</radialGradient>
</defs>
</svg>
