<svg width="51" height="51" viewBox="0 0 51 51" fill="none" xmlns="http://www.w3.org/2000/svg">
<g clip-path="url(#clip0_95_13)">
<path d="M25.4409 0.309082C12.7784 0.309082 13.569 5.82183 13.569 5.82183L13.5831 11.5332H25.6667V13.2479H8.78364C8.78364 13.2479 0.680908 12.3254 0.680908 25.1518C0.680908 37.9787 7.75317 37.5238 7.75317 37.5238H11.9739V31.5716C11.9739 31.5716 11.7463 24.4716 18.9333 24.4716H30.918C30.918 24.4716 37.6514 24.5808 37.6514 17.9385V6.95575C37.6514 6.95575 38.6741 0.309082 25.4409 0.309082ZM18.778 4.14987C19.0635 4.14961 19.3463 4.20588 19.6102 4.31546C19.874 4.42505 20.1138 4.58579 20.3157 4.78849C20.5176 4.99119 20.6777 5.23187 20.7869 5.49676C20.896 5.76166 20.9521 6.04556 20.9518 6.33222C20.9521 6.61888 20.896 6.90278 20.7869 7.16768C20.6777 7.43257 20.5176 7.67325 20.3157 7.87595C20.1138 8.07865 19.874 8.23939 19.6102 8.34898C19.3463 8.45856 19.0635 8.51483 18.778 8.51457C18.4924 8.51483 18.2096 8.45856 17.9458 8.34898C17.6819 8.23939 17.4422 8.07865 17.2403 7.87595C17.0384 7.67325 16.8783 7.43257 16.7691 7.16768C16.6599 6.90278 16.6039 6.61888 16.6042 6.33222C16.6039 6.04556 16.6599 5.76166 16.7691 5.49676C16.8783 5.23187 17.0384 4.99119 17.2403 4.78849C17.4422 4.58579 17.6819 4.42505 17.9458 4.31546C18.2096 4.20588 18.4924 4.14961 18.778 4.14987Z" fill="url(#paint0_linear_95_13)"/>
<path d="M25.8004 50.1234C38.4629 50.1234 37.6723 44.6107 37.6723 44.6107L37.6583 38.8995H25.5745V37.1848H42.4575C42.4575 37.1848 50.5602 38.1074 50.5602 25.2805C50.5602 12.4538 43.4879 12.9087 43.4879 12.9087H39.2672V18.8607C39.2672 18.8607 39.4948 25.9607 32.3079 25.9607H20.3231C20.3231 25.9607 13.5897 25.8515 13.5897 32.494V43.477C13.5897 43.477 12.5672 50.1234 25.8002 50.1234H25.8004ZM32.4633 46.283C32.1778 46.2833 31.895 46.227 31.6311 46.1175C31.3673 46.0079 31.1275 45.8471 30.9256 45.6444C30.7237 45.4417 30.5636 45.201 30.4545 44.9361C30.3453 44.6713 30.2892 44.3874 30.2895 44.1007C30.2892 43.814 30.3453 43.5301 30.4544 43.2652C30.5635 43.0003 30.7236 42.7596 30.9256 42.5568C31.1275 42.3541 31.3672 42.1934 31.6311 42.0838C31.895 41.9742 32.1778 41.9179 32.4633 41.9181C32.7489 41.9179 33.0317 41.9742 33.2955 42.0837C33.5594 42.1933 33.7991 42.3541 34.001 42.5568C34.2029 42.7595 34.3631 43.0002 34.4722 43.265C34.5814 43.5299 34.6374 43.8138 34.6372 44.1005C34.6374 44.3872 34.5814 44.6711 34.4722 44.936C34.3631 45.2008 34.2029 45.4415 34.001 45.6442C33.7991 45.8469 33.5594 46.0077 33.2955 46.1173C33.0317 46.2268 32.7489 46.2831 32.4633 46.2829V46.283Z" fill="url(#paint1_linear_95_13)"/>
</g>
<defs>
<linearGradient id="paint0_linear_95_13" x1="5.47429" y1="4.7896" x2="30.2887" y2="29.2605" gradientUnits="userSpaceOnUse">
<stop stop-color="#387EB8"/>
<stop offset="1" stop-color="#366994"/>
</linearGradient>
<linearGradient id="paint1_linear_95_13" x1="20.6466" y1="20.5656" x2="47.2896" y2="45.6537" gradientUnits="userSpaceOnUse">
<stop stop-color="#FFE052"/>
<stop offset="1" stop-color="#FFC331"/>
</linearGradient>
<clipPath id="clip0_95_13">
<rect width="50" height="50" fill="white" transform="translate(0.652588 0.294922)"/>
</clipPath>
</defs>
</svg>
