<svg width="50" height="50" viewBox="0 0 50 50" fill="none" xmlns="http://www.w3.org/2000/svg">
<path d="M25 28.8657C27.1574 28.8657 28.9062 27.1168 28.9062 24.9595C28.9062 22.8021 27.1574 21.0532 25 21.0532C22.8426 21.0532 21.0938 22.8021 21.0938 24.9595C21.0938 27.1168 22.8426 28.8657 25 28.8657Z" fill="#00D8FF"/>
<path d="M25 33.9157C20.3049 34.0293 15.6216 33.3964 11.125 32.0407C9.04785 31.3823 7.11052 30.345 5.41094 28.9814C4.76239 28.5155 4.2223 27.9149 3.82772 27.2207C3.43314 26.5264 3.19342 25.7551 3.125 24.9595C3.125 22.3767 5.9625 19.8454 10.7156 18.1892C15.3324 16.7216 20.1561 16.0103 25 16.0829C29.7792 16.0162 34.5383 16.7146 39.0969 18.1517C41.0973 18.7894 42.969 19.7766 44.625 21.0673C45.2625 21.5114 45.7945 22.0903 46.1833 22.7629C46.5721 23.4355 46.8083 24.1854 46.875 24.9595C46.875 27.6439 43.7031 30.3642 38.5938 32.0548C34.1843 33.3663 29.5997 33.9939 25 33.9157V33.9157ZM25 17.9517C20.3658 17.8897 15.7513 18.5659 11.3297 19.9548C6.95469 21.4814 4.99375 23.5689 4.99375 24.9548C4.99375 26.4048 7.10156 28.6845 11.7297 30.2673C16.0314 31.5577 20.5103 32.1584 25 32.047C29.4006 32.1257 33.7874 31.5302 38.0078 30.2814C42.8125 28.6892 45 26.4064 45 24.9595C44.9212 24.463 44.7402 23.9882 44.4686 23.5651C44.197 23.1421 43.8406 22.78 43.4219 22.5017C41.9402 21.3566 40.2683 20.4817 38.4828 19.9173C34.1219 18.5482 29.5703 17.8846 25 17.9517V17.9517Z" fill="#00D8FF"/>
<path d="M16.125 44.4422C15.3961 44.459 14.6758 44.2821 14.0375 43.9297C11.8 42.6391 11.025 38.9172 11.9641 33.9719C12.9994 29.2393 14.7934 24.7052 17.2766 20.5454C19.6058 16.3721 22.5878 12.5984 26.1094 9.36724C27.6612 7.95271 29.4514 6.82434 31.3969 6.03442C32.1006 5.70464 32.8682 5.53369 33.6453 5.53369C34.4224 5.53369 35.1901 5.70464 35.8938 6.03442C38.2203 7.37505 38.9906 11.4813 37.9047 16.7516C36.8373 21.2275 35.0899 25.5132 32.7234 29.4594C30.4761 33.5834 27.5881 37.3243 24.1672 40.5422C22.559 42.0122 20.6927 43.1718 18.6625 43.9626C17.8497 44.2642 16.9918 44.4264 16.125 44.4422V44.4422ZM18.8953 21.4735C16.5267 25.4568 14.8073 29.7918 13.8016 34.3157C12.9375 38.8704 13.7672 41.6094 14.9734 42.3063C16.2234 43.0297 19.2578 42.3438 22.9422 39.1251C26.2079 36.0422 28.9644 32.4613 31.1094 28.5157C33.3765 24.743 35.0526 20.6456 36.0797 16.3657C37.1016 11.4047 36.2188 8.36724 34.9656 7.64536C34.496 7.4654 33.9941 7.38485 33.4917 7.40878C32.9893 7.43272 32.4973 7.56063 32.0469 7.78442C30.3151 8.49903 28.723 9.51353 27.3438 10.7813C23.9792 13.8763 21.1308 17.489 18.9063 21.4829L18.8953 21.4735Z" fill="#00D8FF"/>
<path d="M33.8703 44.4626C31.7531 44.4626 29.0641 43.1813 26.2641 40.7735C22.6808 37.513 19.6484 33.6944 17.2844 29.4657C14.8324 25.3631 13.0526 20.8947 12.0125 16.2298C11.5614 14.1774 11.4778 12.0613 11.7656 9.97978C11.8322 9.2076 12.0673 8.45942 12.4544 7.788C12.8416 7.11658 13.3713 6.53826 14.0063 6.09384C16.3297 4.74853 20.2719 6.13134 24.2953 9.70321C27.64 12.8629 30.4803 16.5168 32.7172 20.5376C35.1677 24.5444 36.9661 28.915 38.0453 33.486C38.5158 35.6137 38.5884 37.8101 38.2594 39.9641C38.1811 40.7585 37.932 41.5266 37.529 42.2157C37.1261 42.9048 36.5789 43.4985 35.925 43.9563C35.2971 44.3043 34.588 44.4791 33.8703 44.4626V44.4626ZM18.9016 28.5251C21.1694 32.5664 24.0661 36.221 27.4828 39.3516C30.9969 42.3751 33.7844 43.0251 34.9828 42.3204C36.2328 41.5938 37.1547 38.6282 36.2047 33.8298C35.1639 29.4656 33.4389 25.2937 31.0938 21.4688C28.9591 17.6206 26.248 14.1217 23.0547 11.0938C19.2672 7.73134 16.1953 6.97978 14.9438 7.70478C14.5537 8.02178 14.2336 8.41622 14.0036 8.86319C13.7737 9.31017 13.6389 9.79996 13.6078 10.3017C13.3594 12.158 13.4403 14.0437 13.8469 15.872C14.8474 20.3331 16.5543 24.6057 18.9031 28.5282L18.9016 28.5251Z" fill="#00D8FF"/>
</svg>
