<svg width="50" height="50" viewBox="0 0 50 50" fill="none" xmlns="http://www.w3.org/2000/svg">
<g clip-path="url(#clip0_452_49)">
<path d="M7.60606 7.00763C17.485 -2.56248 33.2807 -2.30526 42.8508 7.62501C43.9313 6.18439 44.8574 4.58947 45.5264 2.94298C48.665 12.5131 50.5688 20.5397 49.8482 26.7652C49.4881 32.0133 47.4301 37.0557 44.0342 41.069C35.1846 51.5652 19.44 52.9029 8.94376 44.0533L8.74297 43.8746L8.73223 43.8676C8.69921 43.8445 8.66678 43.8206 8.63497 43.7959C8.53926 43.7215 8.45235 43.6404 8.37403 43.5537L8.3459 43.5217L8.01778 43.2301C7.69747 42.9557 7.37735 42.6813 7.09337 42.3707L6.98868 42.2524C-2.58163 32.3734 -2.27284 16.5777 7.60587 7.00763H7.60606ZM11.3104 40.5031C10.3842 39.7828 9.04649 39.8856 8.32598 40.8117C7.69278 41.6262 7.6959 42.7588 8.33555 43.51L8.34571 43.5217L8.74278 43.8746L8.78184 43.9012C9.68106 44.4926 10.8912 44.3703 11.5813 43.5344L11.6191 43.4873C12.3395 42.5611 12.1852 41.2234 11.3106 40.5029L11.3104 40.5031ZM45.2693 5.51544C42.6965 10.918 36.3162 15.0342 30.8109 16.3205C25.6143 17.5553 21.0863 16.5264 16.3014 18.3785C5.39356 22.5463 5.59942 35.5121 11.5678 38.4449L11.9279 38.6508C11.9279 38.6508 16.2393 37.7936 20.5025 36.6615L20.8678 36.5639C22.5705 36.1049 24.2457 35.6049 25.6143 35.1006C32.7147 32.4766 40.5356 25.9936 43.108 18.4815C41.7703 26.3022 35.0301 33.8656 28.2897 37.3131C24.6881 39.1652 21.9098 39.5768 15.9928 41.635C15.2725 41.8922 14.7065 42.1496 14.7065 42.1496L14.9229 42.1203L15.0666 42.1018L15.2098 42.0838C16.5164 41.9217 17.6906 41.8408 17.6906 41.8408C26.0774 41.4291 39.2492 44.2076 45.3721 36.0268C51.6492 27.6914 48.1504 14.211 45.2691 5.51544H45.2693Z" fill="#6DB33F"/>
<path d="M11.3107 40.5031C12.1855 41.2234 12.3398 42.5611 11.6193 43.4873C10.8992 44.4134 9.56133 44.5164 8.63516 43.7959C7.70918 43.0755 7.60625 41.7378 8.32656 40.8117C9.04688 39.8855 10.3846 39.7828 11.3109 40.5031H11.3107ZM45.2695 5.51538C48.1508 14.2109 51.6496 27.6914 45.3725 36.0267C39.2494 44.2076 26.0777 41.4291 17.691 41.8408C17.691 41.8408 16.5168 41.9218 15.2102 42.0837L15.067 42.1017C14.9475 42.1169 14.8271 42.133 14.7068 42.1496C14.7068 42.1496 15.2729 41.8921 15.9932 41.6349C21.9102 39.5769 24.6885 39.1652 28.29 37.313C35.0305 33.8658 41.7707 26.3021 43.1084 18.4814C40.5359 25.9935 32.715 32.4765 25.6146 35.1005C20.7268 36.9013 11.9283 38.6507 11.9283 38.6507L11.5682 38.4449C5.5998 35.5121 5.39395 22.5462 16.3018 18.3785C21.0869 16.5263 25.6146 17.5552 30.8115 16.3205C36.3168 15.0341 42.6969 10.9181 45.2695 5.51538V5.51538Z" fill="white"/>
</g>
<defs>
<clipPath id="clip0_452_49">
<rect width="50" height="50" fill="white"/>
</clipPath>
</defs>
</svg>
