<svg width="30" height="30" viewBox="0 0 30 30" fill="none" xmlns="http://www.w3.org/2000/svg">
<g clip-path="url(#clip0_37_32)">
<path d="M20.0508 4.6493C21.6 4.6493 22.9987 5.28316 23.984 6.30082C25.2098 6.06363 26.3652 5.63145 27.4035 5.03285C27.0018 6.25257 26.1473 7.27582 25.0359 7.92316C26.1234 7.7952 27.1645 7.51582 28.1306 7.09816C27.4064 8.14535 26.4947 9.06738 25.4418 9.80426C25.4517 10.0279 25.4573 10.2538 25.4573 10.4788C25.4573 17.3849 20.0372 25.3503 10.1259 25.3503C7.08375 25.3503 4.25016 24.4822 1.86706 23C2.29339 23.0496 2.72224 23.0743 3.15144 23.074C5.67566 23.074 8.00016 22.2392 9.84469 20.8358C7.48547 20.7954 5.49422 19.2828 4.81125 17.2076C5.14574 17.2703 5.48532 17.3018 5.82563 17.3019C6.31547 17.3019 6.79266 17.2386 7.24359 17.1186C4.77891 16.64 2.92125 14.5273 2.92125 11.9937V11.9267C3.64828 12.3185 4.47844 12.5539 5.36297 12.581C3.91641 11.6426 2.96531 10.0451 2.96531 8.23148C2.96531 7.27289 3.23159 6.37477 3.69519 5.60555C6.35206 8.76586 10.3224 10.8471 14.8013 11.066C14.7089 10.6844 14.6611 10.2813 14.6611 9.87586C14.6611 6.98883 17.0738 4.6493 20.0508 4.6493ZM28.1305 7.09913H28.1352H28.1305ZM20.0507 2.77441C16.3691 2.77441 13.3191 5.46413 12.8493 8.93944C9.83716 8.33429 7.09778 6.7396 5.1295 4.40007C4.95355 4.19076 4.73394 4.02247 4.48607 3.907C4.2382 3.79154 3.96807 3.73169 3.69463 3.73166C3.64552 3.73167 3.59644 3.73355 3.54747 3.73729C3.25027 3.76109 2.963 3.8553 2.70942 4.01212C2.45584 4.16895 2.24324 4.38388 2.08919 4.63916C1.43551 5.72379 1.09013 6.96621 1.09026 8.2326C1.09026 9.07775 1.2421 9.90088 1.52994 10.6706C1.22338 11.0113 1.04666 11.4571 1.04666 11.9278V11.9948C1.04666 13.8314 1.77276 15.5357 2.97838 16.8131C2.90901 17.1346 2.92447 17.4712 3.03041 17.7937C3.44622 19.0588 4.20325 20.1492 5.18482 20.9797C4.52572 21.1265 3.8456 21.2005 3.15135 21.2005C2.78432 21.2005 2.42713 21.1804 2.08916 21.1391C2.01416 21.1297 1.9401 21.1264 1.86557 21.1264C1.07807 21.1264 0.363224 21.6229 0.0979116 22.3799C-0.193182 23.2096 0.129816 24.1293 0.876037 24.5938C3.64544 26.3169 6.84416 27.2268 10.1254 27.2268C20.7904 27.2268 27.2057 18.8779 27.3304 10.7225C28.2056 9.9985 28.9787 9.15931 29.6287 8.22785C29.8755 7.90374 30.0089 7.50745 30.0084 7.10004C30.0084 6.46207 29.6892 5.89816 29.2031 5.55923C29.4136 4.83782 29.1735 4.05688 28.5876 3.5797C28.2454 3.30126 27.8259 3.1597 27.404 3.1597C27.0752 3.15939 26.7521 3.2459 26.4674 3.41048C25.8478 3.7677 25.1849 4.05035 24.487 4.25382C23.2241 3.30366 21.6585 2.77444 20.0507 2.77441Z" fill="white"/>
</g>
<defs>
<clipPath id="clip0_37_32">
<rect width="30" height="30" fill="white"/>
</clipPath>
</defs>
</svg>
