<svg width="30" height="30" viewBox="0 0 30 30" fill="none" xmlns="http://www.w3.org/2000/svg">
<g clip-path="url(#clip0_1_18)">
<path d="M20.0508 4.64907C21.6 4.64907 22.9987 5.28294 23.984 6.30059C25.2098 6.0634 26.3652 5.63122 27.4035 5.03262C27.0018 6.25234 26.1473 7.27559 25.0359 7.92294C26.1234 7.79497 27.1645 7.51559 28.1306 7.09794C27.4064 8.14512 26.4947 9.06715 25.4418 9.80403C25.4517 10.0276 25.4573 10.2536 25.4573 10.4785C25.4573 17.3846 20.0372 25.3501 10.1259 25.3501C7.08375 25.3501 4.25016 24.482 1.86706 22.9998C2.29339 23.0494 2.72224 23.0741 3.15144 23.0738C5.67566 23.0738 8.00016 22.239 9.84469 20.8355C7.48547 20.7952 5.49422 19.2826 4.81125 17.2074C5.14574 17.2701 5.48532 17.3016 5.82563 17.3016C6.31547 17.3016 6.79266 17.2383 7.24359 17.1183C4.77891 16.6398 2.92125 14.5271 2.92125 11.9934V11.9264C3.64828 12.3183 4.47844 12.5536 5.36297 12.5808C3.91641 11.6423 2.96531 10.0449 2.96531 8.23126C2.96531 7.27266 3.23159 6.37454 3.69519 5.60532C6.35206 8.76563 10.3224 10.8469 14.8013 11.0658C14.7089 10.6842 14.6611 10.2811 14.6611 9.87563C14.6611 6.9886 17.0738 4.64907 20.0508 4.64907ZM28.1305 7.0989H28.1352H28.1305ZM20.0507 2.77419C16.3691 2.77419 13.3191 5.4639 12.8493 8.93921C9.83716 8.33406 7.09778 6.73937 5.1295 4.39984C4.95355 4.19053 4.73394 4.02224 4.48607 3.90677C4.2382 3.79131 3.96807 3.73146 3.69463 3.73143C3.64552 3.73144 3.59644 3.73332 3.54747 3.73706C3.25027 3.76086 2.963 3.85507 2.70942 4.01189C2.45584 4.16872 2.24324 4.38366 2.08919 4.63893C1.43551 5.72356 1.09013 6.96598 1.09026 8.23237C1.09026 9.07752 1.2421 9.90065 1.52994 10.6703C1.22338 11.0111 1.04666 11.4569 1.04666 11.9275V11.9946C1.04666 13.8311 1.77276 15.5355 2.97838 16.8128C2.90901 17.1344 2.92447 17.471 3.03041 17.7935C3.44622 19.0586 4.20325 20.1489 5.18482 20.9795C4.52572 21.1262 3.8456 21.2003 3.15135 21.2003C2.78432 21.2003 2.42713 21.1802 2.08916 21.1389C2.01416 21.1295 1.9401 21.1262 1.86557 21.1262C1.07807 21.1262 0.363224 21.6226 0.0979116 22.3797C-0.193182 23.2093 0.129816 24.129 0.876037 24.5936C3.64544 26.3167 6.84416 27.2265 10.1254 27.2265C20.7904 27.2265 27.2057 18.8776 27.3304 10.7223C28.2056 9.99827 28.9787 9.15909 29.6287 8.22762C29.8755 7.90351 30.0089 7.50722 30.0084 7.09981C30.0084 6.46184 29.6892 5.89793 29.2031 5.559C29.4136 4.83759 29.1735 4.05666 28.5876 3.57947C28.2454 3.30103 27.8259 3.15947 27.404 3.15947C27.0752 3.15916 26.7521 3.24567 26.4674 3.41025C25.8478 3.76747 25.1849 4.05012 24.487 4.25359C23.2241 3.30343 21.6585 2.77421 20.0507 2.77419Z" fill="#3A86FF"/>
</g>
<defs>
<clipPath id="clip0_1_18">
<rect width="30" height="30" fill="white"/>
</clipPath>
</defs>
</svg>
